<svg height="1em" viewBox="0 0 12 16" fill="none" xmlns="http://www.w3.org/2000/svg">
<path d="M5.99995 16C5.79933 16 5.6062 15.914 5.46558 15.76C4.90683 15.152 0 9.724 0 6.4C0 2.872 2.6906 0 5.99995 0C9.3093 0 11.9999 2.872 11.9999 6.4C11.9999 9.724 7.09494 15.152 6.53432 15.76C6.3937 15.914 6.20057 16 5.99995 16ZM5.99995 1.6C3.51935 1.6 1.49999 3.754 1.49999 6.4C1.49999 8.416 4.37996 12.164 5.99995 14.038C7.61994 12.164 10.4999 8.418 10.4999 6.4C10.4999 3.754 8.48055 1.6 5.99995 1.6Z" fill="black"/>
<path d="M5.99997 9.59922C4.34624 9.59922 3 8.16322 3 6.39922C3 4.63522 4.34624 3.19922 5.99997 3.19922C7.65371 3.19922 8.99995 4.63522 8.99995 6.39922C8.99995 8.16322 7.65371 9.59922 5.99997 9.59922ZM5.99997 4.79922C5.17311 4.79922 4.49999 5.51722 4.49999 6.39922C4.49999 7.28122 5.17311 7.99922 5.99997 7.99922C6.82684 7.99922 7.49996 7.28122 7.49996 6.39922C7.49996 5.51722 6.82684 4.79922 5.99997 4.79922Z" fill="black"/>
</svg>
