<svg height="1em" viewBox="0 0 16 16" fill="none" xmlns="http://www.w3.org/2000/svg">
<g clip-path="url(#clip0_1079_1205)">
<path d="M0.855068 15.9998C0.630559 15.9998 0.412465 15.9121 0.249963 15.7496C0.0382835 15.5379 -0.0472436 15.2279 0.0254545 14.9371L0.880726 11.516C0.919214 11.3663 0.996188 11.2274 1.10524 11.1183L9.65795 2.5656C9.99151 2.23204 10.5325 2.23204 10.8682 2.5656L13.434 5.13141C13.7675 5.46497 13.7675 6.00593 13.434 6.34162L4.88126 14.8943C4.77221 15.0034 4.63323 15.0825 4.48356 15.1188L1.06247 15.9741C0.99405 15.9912 0.92349 15.9998 0.855068 15.9998ZM2.48222 12.1596L2.03107 13.9685L3.83997 13.5152L11.6187 5.73652L10.2631 4.38091L2.48222 12.1596Z" fill="black"/>
<path d="M12.5787 -6.44937e-05L11.3691 1.20947L14.7906 4.63095L16.0002 3.42141L12.5787 -6.44937e-05Z" fill="black"/>
</g>
<defs>
<clipPath id="clip0_1079_1205">
<rect width="16" height="16" fill="white"/>
</clipPath>
</defs>
</svg>
