<svg  height="1em" viewBox="0 0 15 16" fill="none" xmlns="http://www.w3.org/2000/svg">
<path d="M13.8519 16H10.5926C4.75241 16 0 10.8156 0 4.44444V0.888889C0 0.397778 0.36463 0 0.814815 0H4.88889C5.2637 0 5.58963 0.277777 5.67926 0.673333L6.49407 4.22889C6.58778 4.63333 6.41056 5.05333 6.06833 5.24L4.91333 5.86889C5.14352 8.38222 6.98296 10.3867 9.28685 10.64L9.86333 9.38C10.0344 9.00667 10.4194 8.81333 10.7902 8.91556L14.0494 9.80444C14.412 9.90444 14.6667 10.2578 14.6667 10.6667V15.1111C14.6667 15.6022 14.302 16 13.8519 16ZM1.62963 1.77778V4.44444C1.62963 9.83556 5.65074 14.2222 10.5926 14.2222H13.037V11.36L11.0285 10.8133L10.507 11.9533C10.3685 12.2533 10.0874 12.4444 9.77778 12.4444C6.18241 12.4444 3.25926 9.25333 3.25926 5.33333C3.25926 4.99556 3.43444 4.68889 3.70944 4.53778L4.75444 3.96889L4.25333 1.77778H1.62963Z" fill="black"/>
</svg>
