<svg height="1em" viewBox="0 0 18 16" fill="none" xmlns="http://www.w3.org/2000/svg">
<path d="M16.8883 9.77762H0.888288C0.626065 9.77762 0.379399 9.66206 0.21051 9.46428C0.0416209 9.26428 -0.0317124 9.00206 0.012732 8.74428L0.899399 3.40873C0.97051 2.97984 1.34162 2.6665 1.77718 2.6665H15.9994C16.435 2.6665 16.8038 2.97984 16.8772 3.40873L17.7661 8.74206C17.8083 8.99984 17.7372 9.26428 17.5683 9.46206C17.3994 9.66206 17.1505 9.77539 16.8905 9.77539L16.8883 9.77762ZM1.93718 7.99984H15.8394L15.2461 4.44428H2.53051L1.93718 7.99984Z" fill="black"/>
<path d="M16.8887 0H0.888672V1.77778H16.8887V0Z" fill="black"/>
<path d="M10.6664 15.9998H1.77756C1.28645 15.9998 0.888672 15.602 0.888672 15.1109V8.88867H2.66645V14.222H9.77756V8.88867H11.5553V15.1109C11.5553 15.602 11.1576 15.9998 10.6664 15.9998Z" fill="black"/>
<path d="M16.8881 8.88867H15.1104V15.9998H16.8881V8.88867Z" fill="black"/>
</svg>
