<svg height="1em" viewBox="0 0 13 16" fill="none" xmlns="http://www.w3.org/2000/svg">
<g clip-path="url(#clip0_1079_1189)">
<path d="M6.22255 7.11111C4.26255 7.11111 2.66699 5.51556 2.66699 3.55556C2.66699 1.59556 4.26255 0 6.22255 0C8.18255 0 9.7781 1.59556 9.7781 3.55556C9.7781 5.51556 8.18255 7.11111 6.22255 7.11111ZM6.22255 1.77778C5.24255 1.77778 4.44477 2.57556 4.44477 3.55556C4.44477 4.53556 5.24255 5.33333 6.22255 5.33333C7.20255 5.33333 8.00033 4.53556 8.00033 3.55556C8.00033 2.57556 7.20255 1.77778 6.22255 1.77778Z" fill="black"/>
<path d="M11.5556 16H0.888889C0.397778 16 0 15.6022 0 15.1111V12.4444C0 9.99333 1.99333 8 4.44444 8H8C10.4511 8 12.4444 9.99333 12.4444 12.4444V15.1111C12.4444 15.6022 12.0467 16 11.5556 16ZM1.77778 14.2222H10.6667V12.4444C10.6667 10.9733 9.47111 9.77778 8 9.77778H4.44444C2.97333 9.77778 1.77778 10.9733 1.77778 12.4444V14.2222Z" fill="black"/>
</g>
<defs>
<clipPath id="clip0_1079_1189">
<rect width="12.4444" height="16" fill="white"/>
</clipPath>
</defs>
</svg>
