<svg height="1em" viewBox="0 0 16 16" fill="none" xmlns="http://www.w3.org/2000/svg">
<g clip-path="url(#clip0_1802_4026)">
<path d="M15.1111 15.9999H0.888889C0.397778 15.9999 0 15.6021 0 15.111V5.33322C0 4.84211 0.397778 4.44434 0.888889 4.44434H15.1111C15.6022 4.44434 16 4.84211 16 5.33322V15.111C16 15.6021 15.6022 15.9999 15.1111 15.9999ZM1.77778 14.2221H14.2222V6.22211H1.77778V14.2221Z" fill="black"/>
<path d="M8.00033 6.22222H5.7781C4.06255 6.22222 2.66699 4.82667 2.66699 3.11111C2.66699 1.39556 4.06255 0 5.7781 0C7.49366 0 8.88921 1.39556 8.88921 3.11111V5.33333C8.88921 5.82444 8.49144 6.22222 8.00033 6.22222ZM5.7781 1.77778C5.04255 1.77778 4.44477 2.37556 4.44477 3.11111C4.44477 3.84667 5.04255 4.44444 5.7781 4.44444H7.11144V3.11111C7.11144 2.37556 6.51366 1.77778 5.7781 1.77778Z" fill="black"/>
<path d="M10.2224 6.22222H8.00022C7.50911 6.22222 7.11133 5.82444 7.11133 5.33333V3.11111C7.11133 1.39556 8.50688 0 10.2224 0C11.938 0 13.3336 1.39556 13.3336 3.11111C13.3336 4.82667 11.938 6.22222 10.2224 6.22222ZM8.88911 4.44444H10.2224C10.958 4.44444 11.5558 3.84667 11.5558 3.11111C11.5558 2.37556 10.958 1.77778 10.2224 1.77778C9.48688 1.77778 8.88911 2.37556 8.88911 3.11111V4.44444Z" fill="black"/>
<path d="M8.88911 4.44434H7.11133V15.111H8.88911V4.44434Z" fill="black"/>
</g>
<defs>
<clipPath id="clip0_1802_4026">
<rect width="16" height="16" fill="white"/>
</clipPath>
</defs>
</svg>
