<svg width="20" height="1em" viewBox="0 0 20 20" fill="none" xmlns="http://www.w3.org/2000/svg">
<path d="M9.875 19.25C15.0527 19.25 19.25 15.0527 19.25 9.875C19.25 4.69733 15.0527 0.5 9.875 0.5C4.69733 0.5 0.5 4.69733 0.5 9.875C0.5 15.0527 4.69733 19.25 9.875 19.25Z" fill="#BFBFBF"/>
<path d="M10 20C4.485 20 0 15.515 0 10C0 4.485 4.485 0 10 0C15.515 0 20 4.485 20 10C20 15.515 15.515 20 10 20ZM10 2C5.5875 2 2 5.59 2 10C2 14.41 5.5875 18 10 18C14.4125 18 18 14.41 18 10C18 5.59 14.4125 2 10 2Z" fill="#BFBFBF"/>
<path d="M15 9H5V11H15V9Z" fill="white"/>
</svg>
