<svg width="20" height="1em" viewBox="0 0 20 20" fill="none" xmlns="http://www.w3.org/2000/svg">
<g clip-path="url(#clip0_1676_3264)">
<path d="M10.25 19.25C15.3586 19.25 19.5 15.1086 19.5 10C19.5 4.89137 15.3586 0.75 10.25 0.75C5.14137 0.75 1 4.89137 1 10C1 15.1086 5.14137 19.25 10.25 19.25Z" fill="#FF0000"/>
<path d="M10 20C4.485 20 0 15.515 0 10C0 4.485 4.485 0 10 0C15.515 0 20 4.485 20 10C20 15.515 15.515 20 10 20ZM10 2C5.5875 2 2 5.59 2 10C2 14.41 5.5875 18 10 18C14.4125 18 18 14.41 18 10C18 5.59 14.4125 2 10 2Z" fill="#FF0000"/>
<path d="M15 9H5V11H15V9Z" fill="white"/>
<path d="M11 5H9V15H11V5Z" fill="white"/>
</g>
<defs>
<clipPath id="clip0_1676_3264">
<rect width="20" height="20" fill="white"/>
</clipPath>
</defs>
</svg>
