<svg width="16" height="16" viewBox="0 0 16 16" fill="none" xmlns="http://www.w3.org/2000/svg">
<g clip-path="url(#clip0_1_8226)">
<path d="M6.84218 13.6844C3.06829 13.6844 0 10.6161 0 6.84218C0 3.06829 3.06829 0 6.84218 0C10.6161 0 13.6844 3.06829 13.6844 6.84218C13.6844 10.6161 10.6161 13.6844 6.84218 13.6844ZM6.84218 1.71054C4.01336 1.71054 1.71054 4.01336 1.71054 6.84218C1.71054 9.67099 4.01336 11.9738 6.84218 11.9738C9.67099 11.9738 11.9738 9.67099 11.9738 6.84218C11.9738 4.01336 9.67099 1.71054 6.84218 1.71054Z" fill="#231F20"/>
<path d="M11.7241 10.5139L10.5144 11.7236L14.7909 16.0002L16.0007 14.7904L11.7241 10.5139Z" fill="#231F20"/>
</g>
<defs>
<clipPath id="clip0_1_8226">
<rect width="16" height="16" fill="white"/>
</clipPath>
</defs>
</svg>
