<svg width="20" height="1em" viewBox="0 0 20 20" fill="none" xmlns="http://www.w3.org/2000/svg">
<g clip-path="url(#clip0_1683_1169)">
<path d="M10 20C4.485 20 0 15.515 0 10C0 4.485 4.485 0 10 0C15.515 0 20 4.485 20 10C20 15.515 15.515 20 10 20ZM10 2C5.59 2 2 5.59 2 10C2 14.41 5.59 18 10 18C14.41 18 18 14.41 18 10C18 5.59 14.41 2 10 2Z" fill="white"/>
<path d="M12 14H7V12H11V11H8C7.4475 11 7 10.5525 7 10V7C7 6.4475 7.4475 6 8 6H13V8H9V9H12C12.5525 9 13 9.4475 13 10V13C13 13.5525 12.5525 14 12 14Z" fill="white"/>
<path d="M11 5H9V7H11V5Z" fill="white"/>
<path d="M11 13H9V15H11V13Z" fill="white"/>
</g>
<defs>
<clipPath id="clip0_1683_1169">
<rect width="20" height="20" fill="white"/>
</clipPath>
</defs>
</svg>
