<svg width="20" height="1em" viewBox="0 0 20 20" fill="none" xmlns="http://www.w3.org/2000/svg">
<g clip-path="url(#clip0_1683_1158)">
<path d="M1.06884 20C0.788199 20 0.515581 19.8904 0.312454 19.6873C0.0478544 19.4227 -0.0590545 19.0351 0.0318181 18.6716L1.10091 14.3953C1.14902 14.2082 1.24524 14.0344 1.38154 13.8981L12.0724 3.20724C12.4894 2.79029 13.1656 2.79029 13.5852 3.20724L16.7925 6.41451C17.2094 6.83145 17.2094 7.50765 16.7925 7.92727L6.10158 18.6182C5.96527 18.7545 5.79154 18.8534 5.60445 18.8988L1.32809 19.9679C1.24256 19.9893 1.15436 20 1.06884 20ZM3.10278 15.1998L2.53883 17.4609L4.79996 16.8943L14.5233 7.17089L12.8288 5.47638L3.10278 15.1998Z" fill="white"/>
<path d="M15.7229 0.000285636L14.2109 1.51221L18.4878 5.78905L19.9997 4.27713L15.7229 0.000285636Z" fill="white"/>
</g>
<defs>
<clipPath id="clip0_1683_1158">
<rect width="20" height="20" fill="white"/>
</clipPath>
</defs>
</svg>
