<svg width="60" height="48" viewBox="0 0 60 48" fill="none" xmlns="http://www.w3.org/2000/svg">
<g clip-path="url(#clip0_1_810)">
<path d="M2.02823 9.57177C3.41745 5.95701 8.36589 7.39273 10.3433 5.34606C10.8705 4.80639 9.91736 3.27903 10.5258 2.37279C11.5601 0.835241 12.4423 0.763964 14.2574 0.305755C17.8065 -0.600482 23.1808 0.713052 26.5981 1.40546C34.6799 3.04483 42.3662 6.37449 49.0588 11.2111C53.2569 14.2557 61.1055 19.4793 59.8684 25.6091C59.3106 28.3584 57.2015 31.6371 56.4511 34.4882C55.4066 38.5001 53.9667 41.0864 50.2959 43.5913C43.6439 48.1327 34.4974 49.0491 26.8719 46.8497C13.9431 43.1331 -6.53017 24.8251 2.01809 9.56159C2.41356 8.53316 0.608585 12.0868 2.01809 9.56159L2.02823 9.57177ZM11.4992 7.40291C12.3612 7.71857 13.2028 8.1055 14.014 8.53316C13.2434 7.9324 12.5031 7.30109 11.8136 6.63923C11.7426 6.90397 11.6311 7.15853 11.4992 7.40291C11.6311 7.15853 12.3612 7.71857 11.4992 7.40291ZM58.5096 24.3567C64.0461 14.8565 17.4516 -7.34125 12.8276 3.74742C12.8783 3.72705 12.9392 3.71687 12.9899 3.69651C12.7262 10.1624 29.4678 14.7444 33.747 16.7097C37.002 18.2065 55.8325 28.9693 58.5197 24.3567H58.5096ZM55.5385 27.1874C44.374 24.6418 30.786 18.0741 20.737 12.7589C26.304 16.3635 31.7088 19.856 37.8437 22.3915C42.64 24.377 50.9246 25.6193 54.5244 29.5395C54.7678 28.7148 55.1024 27.9307 55.5283 27.1874C51.1274 26.1793 55.3356 27.5336 55.5283 27.1874H55.5385ZM4.15768 25.3138C7.56482 35.9137 22.6231 45.2408 33.3008 45.4038C39.6486 45.4954 63.4073 38.7343 52.2023 29.6108C48.3084 26.4441 42.4575 26.8717 37.8842 25.0898C31.9015 22.758 26.9632 18.8785 21.7916 15.1925C18.7394 13.0134 11.1342 6.48649 7.11864 8.38043C2.22089 10.6918 2.92057 21.4954 4.14754 25.324C4.2388 25.5887 3.23492 22.4933 4.14754 25.324L4.15768 25.3138Z" fill="black" fill-opacity="0.4"/>
<path d="M30.2788 38.3267C30.3498 38.3267 30.3498 38.4387 30.2788 38.4387C30.2078 38.4387 30.2078 38.3267 30.2788 38.3267Z" fill="black" fill-opacity="0.4"/>
<path d="M28.6265 39.7725C28.6974 39.7725 28.6974 39.8845 28.6265 39.8845C28.5555 39.8845 28.5555 39.7725 28.6265 39.7725Z" fill="black" fill-opacity="0.4"/>
<path d="M15.4438 25.9141C15.5148 25.9141 15.5148 26.0261 15.4438 26.0261C15.3729 26.0261 15.3729 25.9141 15.4438 25.9141Z" fill="black" fill-opacity="0.4"/>
<path d="M3.01126 11.8318C3.90361 10.8238 6.32713 9.13348 6.93555 8.53271C6.19531 9.25567 3.51828 11.2514 3.01126 11.8318Z" fill="black" fill-opacity="0.4"/>
<path d="M20.8995 19.4995C21.4876 20.4057 21.8932 21.373 22.1163 22.432C22.2075 22.931 20.6358 19.0718 20.8995 19.4995C21.447 20.3853 20.8183 19.3671 20.8995 19.4995Z" fill="black" fill-opacity="0.4"/>
<path d="M5.92148 28.1545C6.54004 29.02 7.14846 29.8855 7.74674 30.7612C7.58449 28.5415 8.0915 31.0667 8.15234 32.7977C8.11178 31.8609 6.03303 28.3073 5.92148 28.1545C5.77952 27.9611 6.54004 29.02 5.92148 28.1545Z" fill="black" fill-opacity="0.4"/>
<path d="M3.63056 16.4347C4.28968 15.5488 5.23272 14.7444 6.00338 13.9705C5.86142 13.6854 5.71946 13.4003 5.5775 13.1152L4.18827 14.0927C3.67112 13.5531 4.06659 13.0949 5.38483 12.7283C4.93866 11.8322 5.11104 11.4657 5.63833 12.4941C6.00338 12.1377 7.68667 10.3049 7.76779 10.1216C7.05798 10.7936 7.08839 11.4657 7.85905 12.1275L8.7007 11.3231C9.20771 11.6897 8.98462 12.0664 8.04158 12.4534C8.37621 13.0439 8.71084 13.6447 9.03533 14.2353C9.57276 13.7771 10.1203 13.3189 10.6781 12.8912C10.313 12.0155 12.0166 13.3596 11.033 12.9421C10.6983 13.716 11.033 14.4898 12.047 15.2433C12.6453 13.9604 13.1928 13.6345 13.6999 14.276C13.203 14.7139 12.7061 15.1415 12.1991 15.5794C12.5236 16.282 12.8582 16.9845 13.1928 17.6871C13.6897 17.2187 14.1866 16.7503 14.6835 16.282C14.6023 16.0987 14.8863 15.9663 14.9268 16.0478C15.7786 13.8178 16.6 13.1559 17.4011 14.0724C16.6304 14.836 15.8496 15.5997 15.0789 16.3736C15.4338 17.1169 15.7887 17.8501 16.1538 18.5934C16.4681 18.2879 16.7926 17.9824 17.107 17.677C16.9346 17.2697 17.1273 17.0762 17.3098 17.4835C18.0703 16.7402 18.1514 17.0355 17.4315 17.7686C17.7357 18.4712 18.0602 19.1534 18.4049 19.8356C18.699 19.5098 19.0032 19.1941 19.2973 18.8683C19.8246 19.2654 19.5711 19.6727 18.5469 20.1106C18.841 20.7011 19.8347 23.2467 20.0477 23.6031C19.3987 22.5645 18.8207 21.4852 18.3035 20.3753C18.0399 20.6502 17.7762 20.9353 17.5126 21.2103C18.0196 22.147 18.5469 23.0736 19.0336 24.0206C18.6787 23.2977 18.77 23.0024 19.3074 23.1144C19.3784 24.0919 19.4595 25.0796 19.5305 26.0571C19.9564 24.7843 20.5648 24.2854 21.3659 24.5603V23.5217C21.3659 23.7966 21.1732 30.7614 21.7309 31.3927C22.1163 31.0159 22.4813 30.629 22.8464 30.2217C22.5219 29.7737 22.1974 29.3155 21.8831 28.8674C22.3901 28.3583 22.8058 28.7045 23.1404 29.9061C23.252 29.7839 23.4041 29.9671 23.2926 30.0893C23.4041 30.2217 23.5156 30.3643 23.6272 30.5068C23.617 29.2747 23.9618 26.6477 24.0024 25.7924C23.8807 28.5009 23.4548 30.2319 25.1077 32.36C26.8923 30.5475 25.7465 30.3744 24.1342 28.2463C24.8542 27.5946 25.4829 28.1547 26.0101 29.9366C24.9556 27.6354 25.0671 26.5357 26.3549 26.6273C26.3245 27.7576 25.9189 29.8144 26.6997 30.7512C27.3182 30.1199 27.9368 29.4886 28.5554 28.8471C27.9571 28.0732 33.4125 34.2947 35.0958 34.1929C34.6294 32.6451 33.7168 32.0036 32.3681 32.2887C32.3073 31.8305 32.6419 31.7694 33.372 32.0851C31.8307 31.3927 31.4251 30.7512 32.1349 30.1606C34.5787 32.808 38.8275 31.8713 41.8898 30.9039C39.375 31.6982 36.6676 32.2073 34.0311 32.2887C34.6395 34.0401 35.7448 34.6307 37.3571 34.0401C36.0389 33.2968 35.7245 32.7164 36.4141 32.2786C38.8984 35.3231 45.8242 33.2357 49.1198 32.4415C46.5341 33.0626 46.5138 33.8161 44.7697 35.9341C48.2275 35.4962 50.0832 33.9688 51.9997 31.3927C50.9856 32.7571 49.9209 34.091 48.8258 35.3944C51.229 35.0584 52.1619 35.1704 53.2773 33.7143C52.9731 34.1012 52.6791 34.4882 52.3749 34.8751C53.5004 34.702 49.6775 38.1538 48.917 38.999C49.708 38.8971 52.1011 38.8259 52.5979 38.7444C49.2719 39.2637 49.0691 39.0295 46.4732 41.5344C47.8929 41.2798 51.0059 40.8725 52.1822 40.5976C49.0894 41.3307 46.027 41.4428 43.8874 43.5607L45.5403 41.9519C42.3664 42.5017 39.7604 43.6625 37.5092 45.4546C38.6855 44.528 39.8415 43.5912 40.9873 42.6341C40.4499 42.7054 39.9226 42.7665 39.3852 42.8276C38.9897 42.1963 35.8158 45.1186 35.2581 45.5768C35.3899 45.7601 35.5217 45.923 35.613 45.9841C35.5927 45.9638 35.978 46.8394 35.0553 45.7397C34.4874 46.1878 33.9196 46.6358 33.3517 47.094C32.6926 46.4118 33.1793 45.8619 34.8119 45.4241C34.3556 44.7317 33.8587 44.0698 33.3111 43.4385C32.8954 43.7847 32.4796 44.1309 32.0639 44.4669C32.8751 45.5666 32.4594 45.5972 31.7901 44.6808L30.624 45.5768C30.1879 45.1186 30.5124 44.7419 31.6279 44.4568C30.2184 42.5323 27.9267 44.1716 28.7987 45.0881C27.7948 44.0189 26.8011 42.9294 25.8479 41.8195C25.3409 42.2166 24.8339 42.6035 24.3167 42.9803L25.6248 44.5586C25.7161 44.6706 25.5538 44.8437 25.4626 44.7215L24.1241 43.1229C23.9111 43.2756 23.7489 43.0719 23.9415 42.909C23.5866 42.4814 21.2544 40.2718 21.5383 40.0376C21.011 39.4063 20.4736 38.775 19.9361 38.1538C19.0336 39.0397 19.6928 38.4389 18.4049 39.559C19.6116 39.9968 20.1998 40.6994 20.1693 41.6566C18.2021 43.632 17.2895 35.3129 17.2895 35.2926C17.9385 34.926 16.0321 31.9629 15.2919 30.7614C15.3122 32.6859 15.6062 35.2213 16.3972 36.4024C16.022 35.8221 15.6569 35.2518 15.2817 34.6714C15.9104 36.2701 15.7786 37.0236 14.8761 36.9523C15.3933 34.9464 14.937 33.2052 13.5173 31.7185C12.3715 32.6553 14.0345 36.5756 13.0103 34.5085C13.0002 34.9056 12.99 35.3027 12.9799 35.6999C13.0002 35.3435 12.5337 33.6226 12.0673 32.8386C11.1648 33.5005 11.1344 33.2663 11.9152 32.584C11.0532 31.1585 10.1406 29.7635 9.24827 28.3583C8.83252 28.6231 8.69056 28.4092 9.07589 28.0936C8.71083 27.5234 8.35593 26.943 8.00102 26.3524C7.62583 26.6477 7.27092 26.9633 6.92615 27.2892C7.9706 28.9998 9.05561 30.6799 10.0899 32.3906L9.97837 30.5272C10.0494 31.5862 10.9113 33.7245 11.5501 34.9769C11.0025 35.3842 10.6375 34.9871 10.455 33.7856C10.4752 34.3049 7.38246 28.7249 6.6625 27.5335C6.31773 27.9714 5.92226 28.0732 5.46595 27.8288C5.27328 27.5845 6.52054 27.1161 6.44955 27.1772L5.44567 25.5378C4.50262 25.8636 5.18202 25.1916 5.22258 25.161C4.78655 24.4483 4.36066 23.7355 3.92463 23.0329C4.75613 22.422 5.27328 23.0533 5.48623 24.9472C5.89184 24.6417 6.26703 24.3057 6.62194 23.9493C6.23661 23.2366 5.8817 22.5034 5.54707 21.7601C5.11104 22.758 4.70543 22.9718 4.30996 22.4016C4.43164 22.2692 5.41525 20.803 5.55721 21.1084C6.00338 20.6706 6.44955 20.2531 6.90587 19.8356C6.55096 19.1839 6.20619 18.5425 5.86142 17.8908C5.35441 19.3876 4.77641 19.8153 4.13757 19.1738C4.64459 18.6036 5.14146 18.0435 5.64848 17.4733C5.36455 16.9336 5.08062 16.394 4.79669 15.8645C4.40122 16.73 4.03617 16.9336 3.70154 16.4551C3.98547 16.0783 3.62042 16.5671 3.70154 16.4551L3.63056 16.4347ZM23.6677 32.9608C23.9719 31.912 23.7387 31.0567 22.9782 30.3948C22.6233 30.7817 22.2582 31.1789 21.8831 31.5658C22.5016 32.2684 23.0999 32.9913 23.688 33.7143C23.688 33.4699 23.6677 33.2153 23.6576 32.971L23.6677 32.9608ZM23.9111 31.6269C23.9111 32.2378 23.9415 32.8386 23.9821 33.4495C24.2356 33.195 24.4891 32.9404 24.7325 32.6859C24.4587 32.3397 24.1849 31.9833 23.9111 31.6269C24.1849 31.9833 23.9111 32.024 23.9111 31.6269ZM24.0125 38.3677C23.8807 38.4797 23.759 38.5917 23.6272 38.7037C23.7996 38.9379 23.9821 39.1619 24.1748 39.3859C24.1139 39.0499 24.0632 38.7139 24.0125 38.3677C23.8807 38.4797 24.0531 38.7139 24.0125 38.3677ZM24.3269 37.5327C24.7021 37.1865 25.0671 36.8301 25.422 36.4737C24.9758 35.9341 24.5297 35.4046 24.0835 34.8751C24.1646 35.761 24.2457 36.6468 24.3269 37.5327C24.7021 37.1865 24.2457 36.6468 24.3269 37.5327ZM25.9899 33.1135C25.9899 32.7368 25.9899 32.36 25.9899 31.9833C25.7668 32.2073 25.5538 32.4211 25.3307 32.6451C25.5538 32.9404 25.7769 33.2357 26 33.5208C26 33.3783 26 33.2459 26 33.1033L25.9899 33.1135ZM26 34.2743C25.6552 33.8467 25.3105 33.4292 24.9758 33.0015C23.3635 34.6307 23.7996 33.8263 25.6857 36.1988C26.2738 35.7508 26.3853 35.1093 26 34.2743C26 34.7936 25.6552 33.8467 26 34.2743ZM26.0304 36.3515C26.0304 36.3515 25.9493 36.4432 25.9087 36.4839C25.9493 36.545 26 36.5959 26.0406 36.657C26.0406 36.5552 26.0406 36.4534 26.0304 36.3515C26.0304 36.4534 25.9899 36.3923 26.0304 36.3515ZM26.0608 37.268C25.929 37.0949 25.7871 36.9319 25.6552 36.769C24.7426 37.7363 23.6576 38.7851 24.7528 40.119C26.1217 39.5488 26.5577 38.5917 26.0608 37.268C25.929 37.0949 26.0811 37.7974 26.0608 37.268ZM26.2535 30.7919C26.2535 30.9039 26.2535 31.0159 26.2535 31.1279C26.3042 31.077 26.3549 31.0261 26.4158 30.965C26.3651 30.9039 26.3144 30.8428 26.2535 30.7817C26.2535 30.8938 26.3042 30.8428 26.2535 30.7817V30.7919ZM26.2535 31.6982C26.2535 33.2357 26.0608 33.6328 26.9532 34.814C27.4095 34.2947 27.8455 33.7448 28.2714 33.1848C27.7543 32.5433 27.2168 31.9018 26.6794 31.2807C26.5374 31.4232 26.3955 31.5658 26.2637 31.7083C26.2637 32.1869 26.4056 31.5658 26.2637 31.7083L26.2535 31.6982ZM26.5374 37.2985C26.72 37.5225 26.8924 37.7465 27.0647 37.9705C27.4196 37.6243 27.7746 37.2781 28.1193 36.9218C27.7036 36.4024 27.298 35.8933 26.8822 35.3842C26.4665 35.873 26.0304 36.657 26.5374 37.2985ZM26.436 37.7567C26.436 38.0215 26.4563 38.2862 26.4563 38.5509C26.5679 38.4389 26.6895 38.3371 26.8011 38.2251C26.6794 38.0724 26.5577 37.9095 26.4259 37.7567C26.4259 38.0215 26.5476 37.9095 26.4259 37.7567H26.436ZM34.9539 41.4937C35.1871 41.29 35.4102 41.0864 35.6333 40.8725C35.2784 40.9031 34.9234 40.9336 34.5685 40.954C34.6902 41.1373 34.822 41.3104 34.9437 41.4937C35.177 41.29 34.822 41.3104 34.9437 41.4937H34.9539ZM34.9437 41.9621C34.5787 42.2981 34.2035 42.6239 33.8283 42.9498C34.4063 42.9192 34.9741 42.8785 35.5521 42.8479C35.3493 42.5526 35.1465 42.2574 34.9437 41.9722C34.5787 42.3083 35.1465 42.2675 34.9437 41.9722V41.9621ZM36.1707 40.3838C36.4039 40.17 36.6372 39.9459 36.8704 39.7219C36.4445 39.1008 36.0186 38.4898 35.5927 37.8789C35.0147 38.5509 34.4164 39.2026 33.7877 39.8441C34.2035 40.8624 34.9944 41.0355 36.1707 40.3838C36.4039 40.17 35.542 40.4449 36.1707 40.3838ZM41.4943 39.0193C42.0521 38.4389 42.5996 37.8484 43.1371 37.2476C42.5591 36.545 40.744 36.1886 39.9936 36.9828C40.4905 37.6651 40.9975 38.3371 41.4943 39.0193C42.0521 38.4389 40.9975 38.3371 41.4943 39.0193ZM41.2408 39.8848C41.3828 39.8747 41.5146 39.8543 41.6566 39.8441L41.4842 39.6201C41.4031 39.7117 41.322 39.7932 41.2408 39.8848C41.3828 39.8747 41.322 39.7932 41.2408 39.8848ZM44.3945 39.5386C44.4857 39.447 44.577 39.3655 44.6683 39.2739C44.2525 38.6731 43.8165 38.0927 43.3703 37.5327C42.8329 38.1436 42.2853 38.7546 41.7377 39.3554C42.2346 40.3023 43.1269 40.3736 44.3945 39.5488C44.4857 39.4572 43.6137 39.6405 44.3945 39.5488V39.5386ZM42.336 40.17C42.5185 40.4245 42.7112 40.6689 42.8937 40.9234C43.2486 40.6078 43.5934 40.2921 43.9382 39.9663C43.4007 40.0376 42.8734 40.0987 42.336 40.17C42.8734 40.1089 42.5185 40.4245 42.336 40.17ZM43.8874 36.3821C43.5528 36.4228 43.2182 36.4737 42.8836 36.5145C43.0255 36.6876 43.1675 36.8607 43.3095 37.0338C43.5021 36.8199 43.6948 36.5959 43.8874 36.3821C43.6948 36.6061 43.5528 36.4228 43.8874 36.3821ZM42.265 36.2293C42.0014 35.9341 41.7377 35.649 41.4741 35.3537C41.1496 35.7202 40.8251 36.0766 40.4905 36.433C41.0786 36.3617 41.6667 36.3006 42.265 36.2293C42.0014 35.9341 41.6769 36.3006 42.265 36.2293ZM39.6995 37.2781C39.375 37.6243 39.0404 37.9705 38.7159 38.3066C39.882 39.9052 39.9327 40.6383 41.2307 39.2841C40.7237 38.612 40.2065 37.9502 39.7097 37.2781C39.3852 37.6243 40.2167 37.9502 39.7097 37.2781H39.6995ZM39.5474 37.0745C39.2128 36.545 38.6348 36.5654 37.8337 37.1254C38.0771 37.4411 38.3103 37.7669 38.5435 38.0826C38.8782 37.7465 39.2128 37.4105 39.5474 37.0745C39.2128 37.4105 39.517 37.0338 39.5474 37.0745ZM39.882 40.4551C39.2229 40.5263 38.5638 40.5976 37.9047 40.6587C38.1683 41.0558 38.4218 41.4428 38.6855 41.8399C39.1215 41.4224 39.5474 41.0049 39.9733 40.5772C39.9429 40.5365 39.9125 40.4958 39.882 40.4551C39.2229 40.5263 39.9125 40.4958 39.882 40.4551ZM39.588 40.0478C39.2229 39.5488 38.8477 39.0499 38.4725 38.5509C38.0872 38.9481 37.6917 39.3452 37.2861 39.7321C37.6816 40.6282 38.4421 40.73 39.5778 40.0376C39.2128 39.5386 38.9289 40.0987 39.5778 40.0376L39.588 40.0478ZM38.3002 38.3269C37.6917 37.5327 36.7588 36.4839 35.8158 37.604C36.2518 38.2251 36.6879 38.8462 37.1137 39.4775C37.5092 39.1008 37.9047 38.7139 38.3002 38.3269C38.0061 37.94 37.9047 38.7139 38.3002 38.3269ZM37.0428 39.9867C36.9211 40.0987 36.8095 40.2209 36.6879 40.3329C36.8704 40.3125 37.0529 40.2921 37.2354 40.282C37.1746 40.1801 37.1036 40.0885 37.0326 39.9867C36.9109 40.0987 37.1036 40.0885 37.0326 39.9867H37.0428ZM35.4305 37.6651C34.8119 36.6265 33.7269 36.6265 32.1552 37.6447C32.6419 38.2964 33.1286 38.9481 33.5951 39.5997C34.2238 38.9786 34.8322 38.3269 35.4203 37.6651C35.3493 37.5734 34.8322 38.3371 35.4203 37.6651H35.4305ZM33.5748 40.0478C33.3618 40.2616 33.1489 40.4652 32.9258 40.6689C33.2706 40.6383 33.6153 40.6078 33.95 40.5772C33.8182 40.4041 33.6965 40.2209 33.5647 40.0478C33.3517 40.2616 33.6965 40.2209 33.5647 40.0478H33.5748ZM33.4024 39.8136C31.7394 37.5327 31.8509 37.0439 29.8432 38.5917C30.7051 40.5365 31.8712 41.3002 33.4024 39.8136C32.8853 39.1008 33.1692 40.0376 33.4024 39.8136ZM31.6177 37.4105L31.5265 37.2985C31.4656 37.3494 31.4048 37.4003 31.3439 37.4411L31.6177 37.4105C31.6177 37.4105 31.5265 37.4105 31.6177 37.4105ZM28.748 36.6163C28.748 37.5225 28.9508 37.4309 29.6505 38.3269C29.8939 38.1436 30.1372 37.9604 30.3907 37.7669C28.5047 37.8891 30.8369 37.4411 31.3439 37.0338C30.8978 36.4432 30.4414 35.8628 29.975 35.2824C29.5795 35.7304 29.1638 36.1683 28.7582 36.6061C28.7582 36.7894 29.1739 36.1683 28.7582 36.6061L28.748 36.6163ZM29.8229 35.1093C29.4781 34.6816 29.1333 34.254 28.7886 33.8365C28.7582 34.6511 28.748 35.4657 28.7379 36.2803C29.1029 35.8933 29.4578 35.5166 29.8127 35.1195C29.468 34.6918 29.4578 35.5166 29.8127 35.1195L29.8229 35.1093ZM28.7379 37.716C28.7379 38.1538 28.7379 38.5815 28.7379 39.0193C28.9508 38.8564 29.1638 38.6833 29.3767 38.5204C29.1638 38.2455 28.9508 37.9807 28.7379 37.7058C28.7379 38.1436 28.7683 37.7465 28.7379 37.7058V37.716ZM31.4555 41.1576C30.8369 41.1882 30.2184 41.2187 29.6099 41.2493C29.8837 41.6057 30.1474 41.9621 30.411 42.3184C30.8166 42.013 31.2222 41.6973 31.6279 41.3715L31.4555 41.1576C31.5163 41.2289 30.8369 41.1882 31.4555 41.1576ZM31.1918 40.8216C30.6544 40.1394 30.117 39.4572 29.5795 38.775C29.1942 39.0804 28.7987 39.3859 28.4235 39.7016C28.9103 41.0762 29.833 41.4428 31.1918 40.8114C30.6544 40.1292 30.5935 40.8624 31.1918 40.8114V40.8216ZM28.5554 39.1721C28.8393 38.3371 28.7379 37.6549 28.2714 37.1152C27.9267 37.4716 27.5717 37.8178 27.2168 38.164C27.5515 38.5917 27.8861 39.0092 28.2106 39.4368C28.3221 39.3452 28.4337 39.2637 28.5554 39.1721C28.4742 38.5408 28.4438 39.2637 28.5554 39.1721ZM28.4438 33.419C28.0281 33.979 27.592 34.5289 27.1459 35.0685C27.5515 35.6082 27.9571 36.1377 28.3627 36.6672C28.3323 35.5879 28.3627 34.4983 28.4438 33.4088C28.0281 33.9688 28.3627 34.4983 28.4438 33.4088V33.419ZM26.6693 35.1398C26.5476 34.9871 26.4259 34.8445 26.3042 34.6918C26.3144 34.9565 26.3245 35.2315 26.3346 35.4962C26.4462 35.374 26.5577 35.262 26.6591 35.1398C26.5374 34.9871 26.5476 35.262 26.6591 35.1398H26.6693ZM33.1793 34.6103C32.6216 34.6103 32.0537 34.6103 31.496 34.6002C31.4149 33.9688 31.8915 33.867 32.9258 34.2947C31.5569 32.5637 30.117 30.8836 28.7582 29.1526C28.1396 29.7839 27.521 30.4152 26.9126 31.0465C27.4399 31.6778 27.9672 32.3193 28.4844 32.9608C28.6061 31.9324 28.7277 30.9141 28.8393 29.8857C28.5756 31.6371 28.7683 33.2866 30.0358 34.8954L30.9992 33.7754C31.5062 34.1827 31.2222 34.6103 30.1778 35.0685C30.6443 35.6591 31.1107 36.2599 31.567 36.8708C32.2566 36.3006 32.9157 35.6999 33.4734 35.0075C33.372 34.8751 33.2807 34.7529 33.1793 34.6205C32.6216 34.6205 33.2807 34.7427 33.1793 34.6205V34.6103ZM31.7495 37.105C32.3884 38.1029 33.4734 38.0826 34.9843 37.0439C34.5381 36.4126 34.0717 35.7813 33.5951 35.1602C33.1083 35.8933 32.4492 36.5246 31.7495 37.105C32.4492 36.5246 31.8205 37.1967 31.7495 37.105ZM35.3392 34.5492C34.7612 34.5798 34.1933 34.6002 33.6154 34.6103L33.6863 34.7122C33.7675 34.6002 33.8587 34.7325 33.7877 34.8445C34.457 35.7406 35.9273 37.4716 36.3938 36.9014C36.6372 36.8708 36.8805 36.8505 37.1239 36.8199C36.5358 36.0562 35.9375 35.3027 35.3291 34.5594C34.7511 34.59 35.9375 35.3129 35.3291 34.5594L35.3392 34.5492ZM37.5599 34.3965C36.9819 34.4474 36.4039 34.4882 35.8259 34.5187C36.3836 36.545 37.4991 37.2374 39.1824 36.5857C38.6348 35.8628 38.0974 35.1296 37.5701 34.3965C36.9921 34.4474 38.0974 35.1296 37.5701 34.3965H37.5599ZM40.2674 34.1012C39.517 34.203 38.7565 34.2845 38.0061 34.3558C39.9226 36.8301 39.4257 37.268 41.322 35.2009C40.9062 34.8954 40.5513 34.5289 40.2775 34.1012C39.5271 34.203 40.2775 34.1012 40.2775 34.1012H40.2674ZM46.6355 32.9913C44.6277 33.419 42.5794 33.7957 40.531 34.0707C40.8656 34.366 41.1901 34.6816 41.5045 34.9973C41.758 34.7122 42.0216 34.4271 42.2751 34.1419C42.6808 34.4576 42.478 34.7936 41.6464 35.15C43.9077 37.5022 45.1448 34.9362 46.6355 32.9913C45.8547 34.0198 44.6277 33.419 46.6355 32.9913ZM44.3945 36.321C44.1105 36.6672 43.8266 37.0032 43.5325 37.3392C43.9889 37.9196 44.4147 38.5204 44.8204 39.1212C45.9155 38.0622 46.9701 36.9421 47.9841 35.8017C46.7876 35.9748 45.591 36.1479 44.3843 36.321C44.1004 36.6672 45.5809 36.1581 44.3843 36.321H44.3945ZM48.6534 38.775C49.7282 37.6243 50.7727 36.433 51.7867 35.2213C47.7002 35.8628 47.7915 36.6876 45.0434 39.447C45.2361 39.7423 48.4202 39.0193 48.6534 38.7648V38.775ZM43.6644 41.9926C45.6113 42.1046 47.0715 41.2493 48.0348 39.4266C45.6417 39.7728 44.9623 39.6099 43.1371 41.29C43.3095 41.5242 43.492 41.7584 43.6644 41.9926C43.492 41.7584 44.3742 41.8806 43.6644 41.9926ZM43.2993 42.0435C43.1675 41.8602 43.0255 41.6871 42.8937 41.5038C42.6301 41.7482 42.3664 41.9824 42.1028 42.2166C42.5084 42.1657 42.9038 42.1046 43.3095 42.0435C43.1776 41.8602 42.914 42.1046 43.3095 42.0435H43.2993ZM42.6301 41.1576C41.9608 40.2718 41.322 39.8136 40.4195 40.73C40.7642 41.2187 41.0989 41.7075 41.4335 42.1963C41.8391 41.8501 42.2346 41.5038 42.6301 41.1576C42.2346 41.514 42.3968 40.8522 42.6301 41.1576ZM39.1317 42.5628C39.8212 42.5017 40.5107 42.4203 41.2003 42.3286C40.8758 41.8602 40.5513 41.3918 40.2167 40.9336C39.7908 41.3715 39.3547 41.7991 38.9187 42.2268C38.9897 42.3388 39.0607 42.4508 39.1317 42.5628C39.0607 42.4508 39.6792 42.5119 39.1317 42.5628ZM38.7463 42.6036L38.6652 42.4712C38.6145 42.5221 38.5638 42.573 38.5131 42.6239C38.5942 42.6239 38.6753 42.6036 38.7565 42.6036C38.726 42.5628 38.6753 42.6036 38.7565 42.6036H38.7463ZM38.4218 42.0944C37.2456 40.282 36.6879 40.3736 35.1364 41.7788C36.0287 43.0618 37.2253 43.2349 38.4218 42.0944C38.219 42.2879 38.1176 41.626 38.4218 42.0944ZM37.4078 43.0516C36.9718 43.0923 36.5256 43.1432 36.0896 43.1738C36.2417 43.3978 36.3938 43.6116 36.5459 43.8356C36.84 43.5709 37.1239 43.3163 37.4078 43.0516C37.1239 43.3163 36.9718 43.0923 37.4078 43.0516ZM33.8283 43.7542C34.2339 44.2226 34.6091 44.7317 34.9437 45.251C35.4102 44.8437 35.8766 44.4364 36.3329 44.0291C35.8665 42.8377 34.9234 42.6137 33.5241 43.3571C33.6255 43.4894 33.7269 43.6218 33.8283 43.7542ZM33.2402 43.0007C33.8993 42.9701 34.3962 42.5323 34.7308 41.7075C34.1021 40.8216 32.9258 40.7198 32.0537 41.4733C32.4492 41.9824 32.8447 42.4915 33.2402 43.0007C32.8954 42.5526 33.2402 43.0007 33.2402 43.0007ZM31.8104 44.2531C32.145 43.968 32.4796 43.6829 32.8143 43.3978C32.2768 43.4181 31.7394 43.4283 31.202 43.4283C31.4048 43.7033 31.6076 43.9782 31.8104 44.2531C32.145 43.968 31.6076 43.9782 31.8104 44.2531ZM30.989 43.133C31.6177 43.0923 32.2566 43.0516 32.8853 43.021C32.5303 42.573 32.1754 42.125 31.8205 41.677C31.4251 42.013 31.0194 42.3388 30.6138 42.6443C30.7355 42.8072 30.8572 42.9701 30.9789 43.133C31.6076 43.0923 30.8572 42.9701 30.9789 43.133H30.989ZM30.5834 43.1636C30.5023 43.0618 30.4212 42.9599 30.3502 42.8479C30.1778 42.9701 30.0156 43.0923 29.8432 43.2043C30.0967 43.184 30.34 43.1738 30.5834 43.1534C30.5023 43.0516 30.3299 43.1738 30.5834 43.1534V43.1636ZM28.6263 44.6706C28.5959 44.4568 28.5554 44.2531 28.5249 44.0393C27.3994 44.691 32.9968 40.4041 30.1271 42.5628C29.7316 41.3307 28.9508 40.9235 27.7746 41.3511C27.7137 40.8216 28.1092 40.7198 28.9812 41.0456C28.7075 40.6791 28.4235 40.3227 28.1396 39.9561C27.4298 40.5263 26.72 41.1067 26 41.6668C26.8619 42.685 27.734 43.6829 28.6263 44.6706C27.734 43.6829 28.5959 44.4568 28.6263 44.6706ZM27.9165 39.6812C27.592 39.2637 27.2675 38.8564 26.9431 38.4389C26.5273 38.8361 26.2839 40.4449 26.1623 39.1619C25.7364 39.5488 25.3003 39.9358 24.8542 40.3125C25.1482 40.6689 25.4524 41.0253 25.7465 41.3817C26.4665 40.8114 27.1864 40.2412 27.9165 39.6812C27.592 39.2637 27.1864 40.2412 27.9165 39.6812ZM24.0429 42.7868C24.5297 42.3694 25.0265 41.9722 25.5234 41.5649C24.7832 40.6994 24.0632 39.8339 23.3534 38.9481C22.8565 39.3655 22.3495 39.7525 21.8222 40.119L24.0429 42.7868C23.3027 41.901 24.5297 42.3694 24.0429 42.7868ZM21.8019 39.7728C22.2481 39.3961 22.6841 39.0295 23.11 38.6528C22.674 38.1029 22.2278 37.5429 21.7918 36.9828C21.8222 37.9196 21.8222 38.8462 21.8019 39.783C22.2481 39.4063 21.8222 38.8564 21.8019 39.783V39.7728ZM21.7715 36.3108C22.2887 37.0236 22.816 37.7363 23.3534 38.4389C24.0227 37.8382 24.2153 35.1093 23.6069 34.3965C23.5461 34.4576 21.7614 36.2192 21.7715 36.3108C21.7715 36.3006 22.2887 37.0236 21.7715 36.3108ZM21.7512 35.6795C22.2887 35.1602 22.8261 34.6307 23.3534 34.091C22.7754 33.419 22.2075 32.747 21.6295 32.0647C21.6498 33.2663 21.7005 34.4678 21.7411 35.6795C22.2582 35.1704 21.6904 34.478 21.7411 35.6795H21.7512ZM7.03769 11.3944C5.71946 12.0664 5.44567 12.8607 6.23661 13.7567C6.68278 13.3087 7.1391 12.8505 7.59541 12.4024C7.41288 12.0664 7.23035 11.7304 7.04783 11.3944C6.69292 11.9341 7.23035 11.7304 7.04783 11.3944H7.03769ZM7.76779 12.7385C7.32162 13.1967 6.86531 13.6549 6.41914 14.1131C6.7132 14.6833 7.00727 15.2535 7.31148 15.8136C7.77793 15.3757 8.24438 14.9481 8.73112 14.5306C8.41677 13.9298 8.10242 13.3392 7.77793 12.7487C7.33176 13.2069 8.10242 13.3392 7.77793 12.7487L7.76779 12.7385ZM8.89336 14.8564C8.40663 15.2739 7.94017 15.7117 7.48386 16.1598C7.84891 16.8624 8.22411 17.5649 8.5993 18.2675C9.06575 17.8501 9.54234 17.4326 10.0189 17.0151C9.64374 16.3023 9.26855 15.5794 8.89336 14.8666C8.43705 15.2739 9.26855 15.5794 8.89336 14.8666V14.8564ZM13.9027 24.6316C13.5173 24.9778 13.132 25.3138 12.7467 25.66C13.4463 26.831 14.1562 28.0019 14.8558 29.1831C15.1905 27.503 14.866 25.9858 13.9027 24.6417C13.5173 24.9879 14.1866 25.1916 13.9027 24.6417V24.6316ZM14.2271 23.9086C14.6023 23.5726 14.9775 23.2264 15.3426 22.8802C14.9775 22.1878 14.6328 21.4954 14.288 20.803C13.8925 21.1797 13.4869 21.5463 13.0813 21.923C13.4362 22.6154 13.781 23.2977 14.1257 23.9901C14.1562 23.9595 14.1866 23.9391 14.217 23.9086H14.2271ZM13.7506 24.3261C13.4058 23.6439 13.061 22.9616 12.7162 22.2692C12.2904 22.6562 11.8645 23.0329 11.4386 23.4097C11.8036 24.0512 12.1687 24.6825 12.5439 25.3138C12.9495 24.9879 13.3551 24.6621 13.7506 24.3159C13.4058 23.6337 13.3551 24.6519 13.7506 24.3159V24.3261ZM10.3637 20.915C10.2927 20.9862 10.2217 21.0473 10.1508 21.1186C10.5057 21.7805 10.8707 22.4423 11.2459 23.094C11.6819 22.7173 12.118 22.3405 12.5439 21.9536C12.189 21.251 11.834 20.5586 11.4791 19.856C11.1039 20.2124 10.7389 20.5688 10.3637 20.9251V20.915ZM11.2966 19.4894C10.9316 18.7767 10.5665 18.0639 10.2015 17.3511C9.72486 17.7686 9.25841 18.1861 8.79196 18.6137C9.17729 19.3265 9.56262 20.0393 9.95809 20.752C10.4043 20.3346 10.8504 19.9069 11.2966 19.4894C10.9316 18.7767 11.2256 19.5505 11.2966 19.4894ZM11.1242 23.6948C10.7389 24.0308 10.3536 24.3668 9.95809 24.7028C10.3029 25.3138 10.6476 25.9349 11.0025 26.5459C11.398 26.2404 11.7935 25.9247 12.1889 25.6192C11.834 24.9778 11.4791 24.3464 11.1242 23.705C10.7389 24.041 11.4791 24.3363 11.1242 23.705V23.6948ZM10.9417 23.3587C10.5766 22.7071 10.2116 22.0554 9.85669 21.3935C9.4815 21.7499 9.09617 22.1165 8.72098 22.4729C9.07589 23.1042 9.42066 23.7355 9.77557 24.3566C10.1609 24.0206 10.5564 23.6948 10.9417 23.3587C10.8606 23.2162 10.5564 23.6948 10.9417 23.3587ZM9.66402 21.0372C9.27869 20.3244 8.88322 19.6116 8.50803 18.8887C8.11256 19.2552 7.72723 19.6218 7.3419 19.9884C7.73737 20.6909 8.1227 21.4037 8.51817 22.1063C8.9035 21.7499 9.27869 21.3834 9.66402 21.027C9.27869 20.3142 9.27869 21.3834 9.66402 21.027V21.0372ZM10.7693 13.2272C10.242 13.6854 9.70459 14.1436 9.17729 14.612C9.56262 15.3146 9.95809 16.0274 10.3434 16.73C10.8099 16.3227 11.2865 15.9154 11.7631 15.5081C11.4183 14.7546 11.0938 13.9909 10.7693 13.2272C10.242 13.6854 11.0938 13.9909 10.7693 13.2272ZM11.9152 15.8543C11.4487 16.2616 10.9823 16.6689 10.5259 17.0762C10.9011 17.7686 11.2763 18.4712 11.6515 19.1738C12.0673 18.7767 12.4932 18.3795 12.9089 17.9824C12.5743 17.2798 12.2397 16.5671 11.9152 15.8543C12.2397 16.5671 11.4487 16.2616 11.9152 15.8543ZM13.0712 18.3286C12.6554 18.7257 12.2397 19.1229 11.834 19.52C12.1991 20.2124 12.5641 20.915 12.9292 21.6176C13.3348 21.251 13.7404 20.8844 14.146 20.5077C13.7911 19.7847 13.4362 19.0618 13.0813 18.3286C12.6655 18.7257 13.2435 18.6646 13.0813 18.3286H13.0712ZM14.8051 16.6587C14.3184 17.1373 13.8215 17.6057 13.3348 18.0842C13.6796 18.8174 14.0446 19.5403 14.4198 20.2531C14.8964 19.8051 15.3831 19.3571 15.8597 18.8988C15.5048 18.1453 15.16 17.402 14.8153 16.6587C14.3285 17.1373 15.16 17.402 14.8153 16.6587H14.8051ZM15.9916 19.184C15.5251 19.6422 15.0485 20.0902 14.5719 20.5484C14.937 21.2306 15.302 21.9027 15.6772 22.5849C16.1335 22.147 16.5797 21.7092 17.0259 21.2713C16.671 20.5891 16.3262 19.8967 15.9916 19.1941C15.5251 19.6523 16.3262 19.8865 15.9916 19.1941V19.184ZM18.1312 20.1207C17.8067 19.4181 17.4923 18.7054 17.1982 18.0028C16.894 18.3083 16.5797 18.6137 16.2653 18.9192C16.6101 19.6116 16.9549 20.2938 17.3199 20.9659C17.5937 20.691 17.8675 20.4058 18.1312 20.1207C17.8675 20.4058 17.8067 19.4181 18.1312 20.1207ZM21.4774 39.6914C21.3862 38.7139 21.3456 37.7262 21.3253 36.7385C20.9096 37.156 20.504 37.5734 20.0781 37.9807C20.5445 38.5509 21.011 39.1313 21.4774 39.6914C21.011 39.1212 21.3862 38.7139 21.4774 39.6914ZM19.9463 36.1988C19.9463 36.5756 20.0071 37.0236 19.9868 37.4512C20.3924 37.0439 20.8082 36.6366 21.2138 36.2293C20.7575 35.6388 20.3215 35.038 19.8956 34.4271C19.9158 35.0176 19.926 35.6082 19.9361 36.1988C19.9361 36.5756 19.926 35.6082 19.9361 36.1988H19.9463ZM19.8753 33.6736C20.362 34.3354 20.8285 34.9973 21.3051 35.6591C21.3051 34.4882 21.3051 33.3172 21.3051 32.1564C20.2708 32.4211 19.7942 32.9302 19.8753 33.6634C20.362 34.3252 19.8753 33.5921 19.8753 33.6634V33.6736ZM19.855 33.0728C21.5991 31.6676 21.4572 31.0669 19.9564 29.5497C20.4026 30.0181 20.8487 30.4966 21.2949 30.965C21.2848 28.8573 21.2949 26.7495 21.3253 24.6316C17.543 33.3884 20.8893 22.035 19.5914 27.7576C19.2567 29.2646 19.7942 31.4945 19.855 33.0626C19.997 32.9506 19.8449 32.6655 19.855 33.0626V33.0728ZM19.5914 36.5043C19.5914 36.7996 19.713 34.1521 19.4595 33.7856C16.8839 35.8424 17.0664 34.2947 19.6116 37.4105C19.6116 37.105 19.5914 36.7996 19.5914 36.5043C19.5914 36.7996 19.5812 35.8933 19.5914 36.5043ZM17.6546 38.7444C17.8168 38.9582 17.979 39.1721 18.1413 39.3757C20.2606 37.0134 20.0071 38.5509 17.6444 35.5166C16.7724 37.0134 16.7724 38.0927 17.6546 38.7444ZM17.5329 30.8225C17.8472 30.5883 18.1717 30.3439 18.4861 30.1097C17.0157 31.2196 17.6241 32.8793 17.6444 34.7122C18.192 34.3151 18.7497 33.9281 19.2871 33.5106C19.0742 33.1644 18.8511 32.8182 18.6382 32.472C19.0438 32.1258 19.3277 32.3498 19.5001 33.1543C19.4291 30.9956 19.3176 28.8369 19.1756 26.6884C17.3301 27.5335 16.7724 28.9082 17.5329 30.8123C17.8472 30.5781 17.4923 29.9773 17.5329 30.8123V30.8225ZM17.1881 25.436C17.4416 25.9553 17.3706 27.9307 17.3706 27.9714C20.291 25.3851 18.7294 24.4788 17.1678 21.5259C16.7318 21.9739 16.2856 22.4118 15.8293 22.8496C16.1639 23.4606 16.4884 24.0613 16.8028 24.6825C16.7521 23.9595 16.6912 23.2366 16.6405 22.5136C17.8067 22.4118 17.9892 23.3893 17.1881 25.436C17.107 24.4585 17.2388 25.548 17.1881 25.436ZM17.1577 33.1135C17.1475 32.5026 17.1273 31.9018 17.107 31.2909C16.8738 31.464 16.6507 31.6371 16.4174 31.8102C16.671 32.248 16.9143 32.6757 17.1577 33.1135C17.1475 32.5026 16.9143 32.6757 17.1577 33.1135ZM16.3566 31.7083C17.5227 31.1483 17.7458 30.1301 17.0157 28.6638C16.4783 29.1424 15.9409 29.6108 15.4034 30.0893C15.7279 30.629 16.0423 31.1687 16.3566 31.7185C16.6 31.5352 16.0423 31.1789 16.3566 31.7185V31.7083ZM15.1905 29.733L15.2412 29.8144C15.5454 29.5599 15.8496 29.3053 16.1538 29.0507C15.6873 28.4398 15.3324 27.7474 15.0992 26.9939C15.1398 27.9103 15.1803 28.8267 15.2006 29.7431C15.2209 29.7737 15.1803 28.8267 15.2006 29.7431L15.1905 29.733ZM14.9775 24.9879C14.9572 26.3931 15.4338 27.6761 16.4174 28.8267C18.1109 27.3503 16.2552 24.601 15.5048 23.1755C15.1093 23.5522 14.7037 23.929 14.288 24.2955C14.4198 24.5603 14.5516 24.8352 14.6835 25.0999C14.6328 24.9167 14.7342 24.8759 14.9877 24.9778C15.0079 25.2629 14.9775 24.7741 14.9877 24.9778L14.9775 24.9879ZM14.8558 33.1441C14.8964 32.2786 14.8964 31.4029 14.8863 30.5374C14.5415 30.8428 14.1866 31.1381 13.8317 31.4334C14.1663 32.0036 14.5111 32.5739 14.8558 33.1441C14.8761 32.4211 14.5111 32.5739 14.8558 33.1441ZM12.8785 31.7491C13.0002 31.6473 13.1219 31.5454 13.2537 31.4334C13.1117 31.189 12.9799 30.9447 12.8379 30.6901C12.8481 31.0363 12.8683 31.3927 12.8785 31.7389C13.0002 31.6371 12.8683 31.3927 12.8785 31.7389V31.7491ZM12.7467 28.2972C12.7872 29.682 12.9799 29.9977 13.639 31.1178C14.0345 30.8021 14.4198 30.4763 14.8153 30.1606C13.9736 28.7758 13.1726 27.3706 12.3918 25.9655C12.0064 26.2913 11.6211 26.6171 11.2256 26.9226C11.6211 27.6252 12.0267 28.3278 12.4323 29.0304C12.1788 28.4296 12.2802 28.1852 12.7467 28.2972ZM12.4932 32.9913C12.4932 32.8284 12.4932 32.6757 12.483 32.5128C12.4222 32.5637 12.3613 32.6044 12.3005 32.6553C12.3715 32.7673 12.4323 32.8793 12.5033 32.9913C12.5033 32.8284 12.4323 32.8793 12.5033 32.9913H12.4932ZM10.2826 29.4377C10.9113 30.4152 11.5298 31.3825 12.1281 32.3702C13.568 31.1381 11.3169 27.9816 10.8809 27.1873C10.4245 27.5335 9.95809 27.8696 9.49164 28.1852C9.75528 28.6027 10.0189 29.01 10.2826 29.4275V29.4377ZM9.29897 27.8899C9.75529 27.5234 10.2015 27.1568 10.6679 26.8004C10.3231 26.1895 9.98851 25.5785 9.64374 24.9676C9.17729 25.3647 8.7007 25.7618 8.2241 26.1487C8.57901 26.7291 8.94406 27.3095 9.30911 27.8797C9.76542 27.5132 8.94406 27.2993 9.30911 27.8797L9.29897 27.8899ZM8.01116 25.8229C8.49789 25.436 8.97448 25.0389 9.44094 24.6316C9.09617 24.0104 8.74126 23.3893 8.39649 22.758C7.93004 23.206 7.46358 23.6439 6.98699 24.0919C7.31148 24.6723 7.65625 25.2527 8.00102 25.8229C8.29509 25.5887 7.65625 25.2527 8.00102 25.8229H8.01116ZM5.96282 25.0694C5.86142 25.161 5.76002 25.2832 5.64848 25.3952L6.63208 27.0041C6.98699 26.6782 7.3419 26.3727 7.71709 26.0775C7.38246 25.5072 7.04783 24.937 6.73349 24.3566C6.47998 24.601 6.22647 24.8352 5.96282 25.0796V25.0694ZM5.67889 21.587C6.03381 22.3201 6.40899 23.0329 6.79432 23.7355C7.26078 23.2977 7.73737 22.8496 8.20382 22.4118C7.80835 21.699 7.42302 20.9964 7.03769 20.2837C6.58138 20.7215 6.13521 21.1593 5.67889 21.587C6.03381 22.3201 6.13521 21.1593 5.67889 21.587ZM7.10867 19.6014C7.50415 19.245 7.89961 18.8887 8.29509 18.5323C7.93003 17.8297 7.55485 17.1373 7.19994 16.4347C6.80447 16.8318 6.41913 17.2391 6.0338 17.6464C6.38871 18.2981 6.75376 18.9498 7.11881 19.6014C7.51428 19.245 6.75376 18.9498 7.11881 19.6014H7.10867ZM5.81072 17.2391C6.20619 16.842 6.6118 16.4652 7.01741 16.0783C6.72334 15.5081 6.43941 14.9481 6.14535 14.3778C5.73973 14.7953 5.34426 15.2332 4.92851 15.6506C5.22258 16.1801 5.50651 16.7096 5.80058 17.2391C6.19605 16.842 5.50651 16.7096 5.80058 17.2391H5.81072Z" fill="black" fill-opacity="0.4"/>
<path d="M28.1088 15.9457C28.8084 17.3814 29.7921 17.9618 31.0596 17.6767C30.6641 17.1879 32.9355 17.3814 33.0876 17.2897C32.6212 17.4832 32.1547 17.6869 31.6883 17.8803C33.5541 19.7132 33.5237 20.8841 36.2717 20.5074C35.6227 19.8353 33.8482 17.3305 33.3513 16.8723C34.558 17.972 35.785 20.6907 37.5392 20.263C36.9004 19.7437 36.2615 19.2244 35.6126 18.7051C35.9066 18.9393 39.5267 19.9575 38.2389 20.375C38.7763 21.5155 39.5166 21.8617 40.4596 21.4136C40.0844 21.0776 38.4518 19.1022 38.2389 18.9393C39.689 19.9983 40.2061 21.5765 42.0111 20.9554C42.2443 21.4442 41.9401 21.6478 41.1086 21.5664C41.6663 22.106 41.8894 22.5642 42.6905 22.4115C41.6967 21.5053 44.8605 22.1875 43.4003 22.5744C43.8668 23.3788 44.4752 23.6028 45.2256 23.2668C44.8909 23.0123 44.5462 22.7475 44.2115 22.493C44.9011 23.0428 46.919 24 47.9431 23.7352C48.1459 24.1731 47.8823 24.3258 47.1319 24.2036C47.5477 24.9571 48.1155 25.2117 48.8253 24.9673C48.1054 24.4785 50.8737 24.7942 50.9548 24.7636C50.4985 24.896 50.0422 25.0284 49.5859 25.1506C50.4174 26.0263 51.4415 26.3317 52.6685 26.0568C51.8167 25.7615 51.5734 25.4255 51.9384 25.0488C53.9056 26.4845 54.1084 27.3805 56.8564 27.3805H54.4532C54.8487 27.9406 55.2543 28.4904 55.6498 29.0403C55.0312 28.022 53.713 27.4111 52.3339 27.3398C52.993 28.0933 53.6521 28.8366 54.3112 29.5901C53.8752 29.0199 50.5391 27.0547 51.5429 27.0241C51.0562 26.3216 50.4072 26.0772 49.5859 26.3114C49.9408 26.6372 50.2855 26.9631 50.6202 27.2991C50.5492 27.1769 50.6202 27.126 50.8433 27.1463L51.0156 27.6962C50.7824 26.9325 46.6959 26.1077 48.7746 25.9855C48.2676 25.2931 47.5984 25.1404 46.7466 25.5171C47.1319 25.9041 47.5173 26.291 47.9127 26.6779C47.1319 25.8939 44.0189 24.7636 42.6296 24.6211C43.015 25.0386 41.2708 24.2953 41.9807 24.2851C41.5649 23.7963 40.9768 23.7658 40.2061 24.1934C40.1149 23.5927 40.5407 23.4501 41.4838 23.776C41.1694 23.4603 38.1983 22.605 38.2592 22.605C37.7522 21.7802 36.9105 21.6376 35.7343 22.1875C36.9815 22.6864 37.3161 23.1752 36.7179 23.6436C35.9878 22.8799 34.7709 21.0471 33.6352 20.9147C35.2374 22.4115 28.1595 17.5036 29.5588 17.6665C27.9161 17.0861 27.4496 16.5057 28.1392 15.9253L28.1088 15.9457ZM51.979 27.0343C52.5063 27.0343 53.0437 27.0343 53.571 27.0445C53.0538 26.1688 52.2528 25.9346 51.1779 26.3419C51.4517 26.5659 51.7153 26.8001 51.9688 27.0343C52.4961 27.0343 51.7153 26.79 51.9688 27.0343H51.979ZM49.2005 25.9957C49.5352 25.9855 49.8698 25.9754 50.2146 25.9855C49.7684 25.2931 49.2005 25.0997 48.5313 25.395C48.7544 25.5986 48.9775 25.7921 49.2005 25.9957C49.5352 25.9855 48.9775 25.7921 49.2005 25.9957ZM42.9947 22.7068C42.8122 22.7475 42.6296 22.7883 42.437 22.829C42.7716 23.5418 43.2685 23.7658 43.9073 23.5112C43.6031 23.2465 43.2888 22.9715 42.9845 22.7068C42.802 22.7475 43.2888 22.9817 42.9845 22.7068H42.9947ZM45.5399 23.5214C45.2763 23.5825 45.0126 23.6436 44.749 23.7047C45.1343 24.3258 45.6717 24.4684 46.3511 24.112C46.0773 23.9185 45.8137 23.7149 45.5399 23.5214C45.2763 23.5825 45.8137 23.7149 45.5399 23.5214ZM46.3106 25.1506C46.7669 25.1506 47.2232 25.1506 47.6694 25.12C46.7973 24.4174 46.848 24.3563 45.6616 24.5396C45.8745 24.7433 46.0976 24.9469 46.3106 25.1506C46.7669 25.1506 46.0976 24.9469 46.3106 25.1506ZM44.8605 25.0997C45.1748 25.12 45.4892 25.1302 45.8035 25.1404C45.4689 24.5905 45.0025 24.4276 44.4143 24.6822L44.8706 25.1098C45.185 25.1302 44.7185 24.9673 44.8706 25.1098L44.8605 25.0997ZM44.0391 24.336C44.3028 24.336 44.5664 24.3258 44.8199 24.3054C44.5157 23.7861 44.1101 23.6639 43.6031 23.9287C43.7451 24.0611 43.8972 24.2036 44.0391 24.336C43.8972 24.2036 44.2825 24.336 44.0391 24.336ZM42.295 24.3156C42.731 24.3156 43.1671 24.3258 43.6031 24.336C43.2482 23.8269 42.7615 23.7658 42.1328 24.1323C42.1936 24.1934 42.2443 24.2545 42.3052 24.3156C42.7412 24.3156 42.2443 24.2545 42.3052 24.3156H42.295ZM41.788 23.776C42.153 23.7352 42.508 23.6945 42.873 23.6538C42.4573 22.8799 41.859 22.6762 41.0883 23.0428C41.3215 23.2872 41.5649 23.5316 41.788 23.776C41.5548 23.5316 42.153 23.7352 41.788 23.776ZM40.7131 22.6864C41.0478 22.6762 41.3925 22.6457 41.7272 22.5948C40.9869 21.9024 40.9869 21.6682 39.9222 21.9227C40.1858 22.1773 40.4495 22.4319 40.7131 22.6864C40.7638 22.6864 40.4596 22.4319 40.7131 22.6864ZM38.5431 22.5235C38.6445 22.717 40.2568 22.6966 40.2771 22.6966C39.7904 21.9024 39.1211 21.7395 38.2693 22.2282L38.5431 22.5337C38.5431 22.5337 38.4518 22.4319 38.5431 22.5337V22.5235ZM37.9347 21.8515C38.3606 21.8311 38.7763 21.7802 39.1921 21.7089C38.6344 20.5888 37.8739 20.2732 36.9409 20.7619C37.2756 21.1285 37.6102 21.4849 37.9448 21.8515C38.2186 21.8311 37.8029 21.6987 37.9448 21.8515H37.9347ZM35.4098 21.9126C36.1094 21.7395 36.8193 21.7293 37.5595 21.8718C36.9105 20.6601 35.9168 20.375 34.5783 21.0165C34.852 21.3118 35.136 21.6173 35.4098 21.9126C35.4098 21.9126 35.136 21.6173 35.4098 21.9126ZM33.5744 20.6907C33.6656 20.6907 33.7569 20.6907 33.8482 20.6907C32.9051 19.6928 31.9722 18.0229 30.5729 18.0942C31.5463 18.9902 32.4894 19.9168 33.4426 20.8129C33.4426 20.7518 33.4831 20.6907 33.5744 20.6907Z" fill="black" fill-opacity="0.4"/>
<path d="M34.1929 18.4707C34.2638 18.4707 34.2638 18.5827 34.1929 18.5827C34.1219 18.5827 34.1219 18.4707 34.1929 18.4707Z" fill="black" fill-opacity="0.4"/>
<path d="M28.0074 15.3345C29.0721 15.3146 27.9161 15.3345 28.0074 15.3345C28.1493 15.3345 27.8958 15.3345 28.0074 15.3345Z" fill="black" fill-opacity="0.4"/>
<path d="M41.606 17.2086C42.4476 17.2493 44.496 14.6324 44.9422 15.0804C45.2869 15.4266 43.6341 16.9438 43.3907 17.1882C44.3135 16.5671 44.8205 16.5671 44.9219 17.1882C43.4515 17.4529 42.6505 17.2697 41.5959 17.2187L41.606 17.2086Z" fill="black" fill-opacity="0.4"/>
<path d="M35.2169 14.8357C36.7785 14.8051 40.4797 14.7644 41.8486 14.52C39.6076 14.9273 37.1537 14.8051 35.2169 14.8357C37.4275 14.7949 35.0952 14.8357 35.2169 14.8357Z" fill="black" fill-opacity="0.4"/>
<path d="M29.2551 12.1987C32.8144 12.4227 32.4696 12.0867 35.0249 10.0502C35.7348 9.49017 37.124 6.60854 38.0467 7.01584C38.28 7.11767 35.2176 11.2925 34.7309 11.7303L36.2418 11.2619C35.1162 11.6794 33.5445 12.8707 32.2364 13.553C33.3619 13.6039 42.6606 10.5084 41.8493 9.70401C42.4476 10.3048 37.2254 14.4694 36.2722 14.5712C35.9477 14.1537 36.0592 13.8279 36.617 13.5835C36.0897 13.6853 30.9587 14.1435 30.8573 13.9908C31.0804 13.0337 31.8308 12.4634 33.1287 12.3005C31.7699 12.5144 30.2793 12.2598 29.245 12.1987H29.2551Z" fill="black" fill-opacity="0.4"/>
<path d="M26.1615 11.1396C28.362 11.1396 30.6334 10.885 32.7324 10.1519C30.532 10.9257 28.3417 11.1294 26.1615 11.1396Z" fill="black" fill-opacity="0.4"/>
<path d="M27.3989 8.74658C27.4699 8.74658 27.4699 8.85859 27.3989 8.85859C27.3279 8.85859 27.3279 8.74658 27.3989 8.74658Z" fill="black" fill-opacity="0.4"/>
<path d="M22.6532 8.3087C23.2718 8.27815 25.9792 7.9014 26.4355 7.69775C25.0159 8.32906 23.7382 8.24761 22.6532 8.3087C23.941 8.23742 22.5315 8.3087 22.6532 8.3087Z" fill="black" fill-opacity="0.4"/>
<path d="M21.6289 7.04605C22.9877 5.69179 23.9105 5.48814 24.377 6.43511C22.4807 7.96247 21.5681 8.16612 21.6289 7.04605C22.5618 6.93405 21.4971 7.06642 21.6289 7.04605Z" fill="black" fill-opacity="0.4"/>
<path d="M24.8237 14.6935C26.7402 16.2717 28.4944 18.0435 30.3197 19.7338C29.7011 20.4974 29.042 20.0291 28.3626 18.3489C28.3728 18.5933 28.2916 18.8072 28.1192 19.0006C29.5389 19.5199 31.5568 21.088 31.6582 22.0452C31.6582 22.0655 26.7706 27.8899 26.9227 28.4194C27.1154 28.5619 27.1965 19.9781 27.1863 19.5607C25.9796 20.192 26.4968 21.7804 25.6146 22.7478C26.2332 22.0655 25.1076 17.9213 27.6629 17.7075C27.0545 17.1576 25.2293 15.0193 24.8338 14.6935C26.7402 16.2717 24.7121 14.5916 24.8338 14.6935H24.8237ZM29.549 21.811C29.549 21.811 29.4578 21.7702 29.4071 21.7601C29.3868 21.8517 29.3665 21.9332 29.3462 22.0248C29.4071 21.9535 29.478 21.8823 29.549 21.811C29.5186 21.811 29.478 21.8823 29.549 21.811Z" fill="black" fill-opacity="0.4"/>
<path d="M40.4897 13.4715C41.088 12.9827 41.6964 12.5041 42.2947 12.0154C42.8829 11.6284 39.7698 14.2453 40.4897 13.4715Z" fill="black" fill-opacity="0.4"/>
<path d="M32.5804 7.73878C32.5804 7.73878 34.8924 6.10959 34.7301 6.5067C34.3042 7.55549 32.1748 8.08498 32.5804 7.73878Z" fill="black" fill-opacity="0.4"/>
</g>
<defs>
<clipPath id="clip0_1_810">
<rect width="60" height="48" fill="white" transform="matrix(-1 0 0 1 60 0)"/>
</clipPath>
</defs>
</svg>
