<svg width="60" height="48" viewBox="0 0 60 48" fill="none" xmlns="http://www.w3.org/2000/svg">
<g clip-path="url(#clip0_1_788)">
<path d="M57.9718 9.57177C56.5826 5.95701 51.6341 7.39273 49.6568 5.34606C49.1295 4.80639 50.0826 3.27903 49.4742 2.37279C48.4399 0.835241 47.5577 0.763964 45.7426 0.305755C42.1935 -0.600482 36.8192 0.713052 33.4019 1.40546C25.3201 3.04483 17.6338 6.37449 10.9412 11.2111C6.74311 14.2557 -1.10546 19.4793 0.131649 25.6091C0.689364 28.3584 2.79854 31.6371 3.54892 34.4882C4.59337 38.5001 6.03329 41.0864 9.70407 43.5913C16.3561 48.1327 25.5026 49.0491 33.1281 46.8497C46.0569 43.1331 66.5302 24.8251 57.9819 9.56159C57.5864 8.53316 59.3914 12.0868 57.9819 9.56159L57.9718 9.57177ZM48.5008 7.40291C47.6388 7.71857 46.7972 8.1055 45.986 8.53316C46.7566 7.9324 47.4969 7.30109 48.1864 6.63923C48.2574 6.90397 48.3689 7.15853 48.5008 7.40291C47.6388 7.71857 48.3689 7.15853 48.5008 7.40291V7.40291ZM1.49045 24.3567C-4.04614 14.8565 42.5484 -7.34125 47.1724 3.74742C47.1217 3.72705 47.0608 3.71687 47.0101 3.69651C47.2738 10.1624 30.5322 14.7444 26.253 16.7097C22.998 18.2065 4.16748 28.9693 1.48031 24.3567H1.49045ZM4.46155 27.1874C15.626 24.6418 29.214 18.0741 39.263 12.7589C33.696 16.3635 28.2912 19.856 22.1563 22.3915C17.36 24.377 9.07537 25.6193 5.47557 29.5395C5.23221 28.7147 4.89758 27.9307 4.47169 27.1874C8.87257 26.1793 4.66435 27.5336 4.47169 27.1874H4.46155ZM55.8423 25.3138C52.4352 35.9137 37.3769 45.2408 26.6992 45.4038C20.3514 45.4954 -3.40731 38.7343 7.7977 29.6108C11.6916 26.4441 17.5425 26.8717 22.1158 25.0898C28.0985 22.758 33.0368 18.8785 38.2084 15.1925C41.2606 13.0134 48.8658 6.48649 52.8814 8.38043C57.7791 10.6918 57.0794 21.4954 55.8525 25.324C55.7612 25.5887 56.7651 22.4933 55.8525 25.324L55.8423 25.3138Z" fill="black" fill-opacity="0.4"/>
<path d="M29.7212 38.3267C29.6502 38.3267 29.6502 38.4387 29.7212 38.4387C29.7922 38.4387 29.7922 38.3267 29.7212 38.3267Z" fill="black" fill-opacity="0.4"/>
<path d="M31.3735 39.7725C31.3026 39.7725 31.3026 39.8845 31.3735 39.8845C31.4445 39.8845 31.4445 39.7725 31.3735 39.7725Z" fill="black" fill-opacity="0.4"/>
<path d="M44.5562 25.9141C44.4852 25.9141 44.4852 26.0261 44.5562 26.0261C44.6271 26.0261 44.6271 25.9141 44.5562 25.9141Z" fill="black" fill-opacity="0.4"/>
<path d="M56.9887 11.8318C56.0964 10.8238 53.6729 9.13348 53.0645 8.53271C53.8047 9.25567 56.4817 11.2514 56.9887 11.8318Z" fill="black" fill-opacity="0.4"/>
<path d="M39.1005 19.4995C38.5124 20.4057 38.1068 21.373 37.8837 22.432C37.7925 22.931 39.3642 19.0718 39.1005 19.4995C39.1817 19.3671 38.553 20.3853 39.1005 19.4995Z" fill="black" fill-opacity="0.4"/>
<path d="M54.0785 28.1545C53.46 29.02 52.8515 29.8855 52.2533 30.7612C52.4155 28.5415 51.9085 31.0667 51.8477 32.7977C51.8882 31.8609 53.967 28.3073 54.0785 28.1545C53.46 29.02 54.2205 27.9611 54.0785 28.1545V28.1545Z" fill="black" fill-opacity="0.4"/>
<path d="M56.3694 16.4347C55.7103 15.5488 54.7673 14.7444 53.9966 13.9705C54.1386 13.6854 54.2805 13.4003 54.4225 13.1152L55.8117 14.0927C56.3289 13.5531 55.9334 13.0949 54.6152 12.7283C55.0613 11.8322 54.889 11.4657 54.3617 12.4941C53.9966 12.1377 52.3133 10.3049 52.2322 10.1216C52.942 10.7936 52.9116 11.4657 52.1409 12.1275L51.2993 11.3231C50.7923 11.6897 51.0154 12.0664 51.9584 12.4534C51.6238 13.0439 51.2892 13.6447 50.9647 14.2353C50.4272 13.7771 49.8797 13.3189 49.3219 12.8912C49.687 12.0155 47.9834 13.3596 48.967 12.9421C49.3017 13.716 48.967 14.4898 47.953 15.2433C47.3547 13.9604 46.8072 13.6345 46.3001 14.276C46.797 14.7139 47.2939 15.1415 47.8009 15.5794C47.4764 16.282 47.1418 16.9845 46.8072 17.6871C46.3103 17.2187 45.8134 16.7503 45.3165 16.282C45.3977 16.0987 45.1137 15.9663 45.0732 16.0478C44.2214 13.8178 43.4 13.1559 42.5989 14.0724C43.3696 14.836 44.1504 15.5997 44.9211 16.3736C44.5662 17.1169 44.2113 17.8501 43.8462 18.5934C43.5319 18.2879 43.2074 17.9824 42.893 17.677C43.0654 17.2697 42.8727 17.0762 42.6902 17.4835C41.9297 16.7402 41.8486 17.0355 42.5685 17.7686C42.2643 18.4712 41.9398 19.1534 41.5951 19.8356C41.301 19.5098 40.9968 19.1941 40.7027 18.8683C40.1754 19.2654 40.4289 19.6727 41.4531 20.1106C41.159 20.7011 40.1653 23.2467 39.9523 23.6031C40.6013 22.5645 41.1793 21.4852 41.6965 20.3753C41.9601 20.6502 42.2238 20.9353 42.4874 21.2103C41.9804 22.147 41.4531 23.0736 40.9664 24.0206C41.3213 23.2977 41.23 23.0024 40.6926 23.1144C40.6216 24.0919 40.5405 25.0796 40.4695 26.0571C40.0436 24.7843 39.4352 24.2854 38.6341 24.5603V23.5217C38.6341 23.7966 38.8268 30.7614 38.2691 31.3927C37.8837 31.0159 37.5187 30.629 37.1536 30.2217C37.4781 29.7737 37.8026 29.3155 38.1169 28.8674C37.6099 28.3583 37.1942 28.7045 36.8596 29.9061C36.748 29.7839 36.5959 29.9671 36.7074 30.0893C36.5959 30.2217 36.4844 30.3643 36.3728 30.5068C36.383 29.2747 36.0382 26.6477 35.9976 25.7924C36.1193 28.5009 36.5452 30.2319 34.8923 32.36C33.1076 30.5475 34.2535 30.3744 35.8658 28.2463C35.1458 27.5946 34.5171 28.1547 33.9899 29.9366C35.0444 27.6354 34.9329 26.5357 33.6451 26.6273C33.6755 27.7576 34.0811 29.8144 33.3003 30.7512C32.6818 30.1199 32.0632 29.4886 31.4446 28.8471C32.0429 28.0732 26.5875 34.2947 24.9042 34.1929C25.3706 32.6451 26.2832 32.0036 27.6319 32.2887C27.6927 31.8305 27.3581 31.7694 26.628 32.0851C28.1693 31.3927 28.5749 30.7512 27.8651 30.1606C25.4213 32.808 21.1725 31.8713 18.1102 30.9039C20.625 31.6982 23.3324 32.2073 25.9689 32.2887C25.3605 34.0401 24.2552 34.6307 22.6429 34.0401C23.9611 33.2968 24.2755 32.7164 23.5859 32.2786C21.1016 35.3231 14.1758 33.2357 10.8802 32.4415C13.4659 33.0626 13.4862 33.8161 15.2303 35.9341C11.7725 35.4962 9.91684 33.9688 8.00033 31.3927C9.01436 32.7571 10.0791 34.091 11.1742 35.3944C8.77099 35.0584 7.83809 35.1704 6.72266 33.7143C7.02686 34.1012 7.32093 34.4882 7.62514 34.8751C6.49957 34.702 10.3225 38.1538 11.083 38.999C10.292 38.8971 7.89893 38.8259 7.40205 38.7444C10.7281 39.2637 10.9309 39.0295 13.5268 41.5344C12.1071 41.2798 8.99408 40.8725 7.81781 40.5976C10.9106 41.3307 13.973 41.4428 16.1126 43.5607L14.4597 41.9519C17.6336 42.5017 20.2396 43.6625 22.4908 45.4546C21.3145 44.528 20.1585 43.5912 19.0127 42.6341C19.5501 42.7054 20.0774 42.7665 20.6148 42.8276C21.0103 42.1963 24.1842 45.1186 24.7419 45.5768C24.6101 45.7601 24.4783 45.923 24.387 45.9841C24.4073 45.9638 24.022 46.8394 24.9447 45.7397C25.5126 46.1878 26.0804 46.6358 26.6483 47.094C27.3074 46.4118 26.8207 45.8619 25.1881 45.4241C25.6444 44.7317 26.1413 44.0698 26.6889 43.4385C27.1046 43.7847 27.5204 44.1309 27.9361 44.4669C27.1249 45.5666 27.5406 45.5972 28.2099 44.6808L29.376 45.5768C29.8121 45.1186 29.4876 44.7419 28.3721 44.4568C29.7816 42.5323 32.0733 44.1716 31.2013 45.0881C32.2052 44.0189 33.1989 42.9294 34.1521 41.8195C34.6591 42.2166 35.1661 42.6036 35.6833 42.9803L34.3752 44.5586C34.2839 44.6706 34.4462 44.8437 34.5374 44.7215L35.8759 43.1229C36.0889 43.2756 36.2511 43.0719 36.0585 42.909C36.4134 42.4814 38.7456 40.2718 38.4617 40.0376C38.989 39.4063 39.5264 38.775 40.0639 38.1538C40.9664 39.0397 40.3072 38.4389 41.5951 39.559C40.3884 39.9968 39.8002 40.6994 39.8307 41.6566C41.7979 43.632 42.7105 35.3129 42.7105 35.2926C42.0615 34.926 43.9679 31.9629 44.7081 30.7614C44.6878 32.6859 44.3938 35.2213 43.6028 36.4024C43.978 35.8221 44.3431 35.2518 44.7183 34.6714C44.0896 36.2701 44.2214 37.0236 45.1239 36.9523C44.6067 34.9464 45.063 33.2052 46.4827 31.7185C47.6285 32.6553 45.9655 36.5756 46.9897 34.5085C46.9998 34.9056 47.01 35.3027 47.0201 35.6999C46.9998 35.3435 47.4663 33.6226 47.9327 32.8386C48.8352 33.5005 48.8656 33.2663 48.0848 32.584C48.9468 31.1585 49.8594 29.7635 50.7517 28.3583C51.1675 28.6231 51.3094 28.4092 50.9241 28.0936C51.2892 27.5234 51.6441 26.943 51.999 26.3524C52.3742 26.6477 52.7291 26.9633 53.0739 27.2892C52.0294 28.9998 50.9444 30.6799 49.9101 32.3906L50.0216 30.5272C49.9506 31.5862 49.0887 33.7245 48.4499 34.9769C48.9975 35.3842 49.3625 34.9871 49.545 33.7856C49.5248 34.3049 52.6175 28.7249 53.3375 27.5335C53.6823 27.9714 54.0777 28.0732 54.534 27.8288C54.7267 27.5845 53.4795 27.1161 53.5504 27.1772L54.5543 25.5378C55.4974 25.8636 54.818 25.1916 54.7774 25.161C55.2134 24.4483 55.6393 23.7355 56.0754 23.0329C55.2439 22.422 54.7267 23.0533 54.5138 24.9472C54.1082 24.6417 53.733 24.3057 53.3781 23.9493C53.7634 23.2366 54.1183 22.5034 54.4529 21.7601C54.889 22.758 55.2946 22.9718 55.69 22.4016C55.5684 22.2692 54.5848 20.803 54.4428 21.1084C53.9966 20.6706 53.5504 20.2531 53.0941 19.8356C53.449 19.1839 53.7938 18.5425 54.1386 17.8908C54.6456 19.3876 55.2236 19.8153 55.8624 19.1738C55.3554 18.6036 54.8585 18.0435 54.3515 17.4733C54.6355 16.9336 54.9194 16.394 55.2033 15.8645C55.5988 16.73 55.9638 16.9336 56.2985 16.4551C56.0145 16.0783 56.3796 16.5671 56.2985 16.4551L56.3694 16.4347ZM36.3323 32.9608C36.0281 31.912 36.2613 31.0567 37.0218 30.3948C37.3767 30.7817 37.7418 31.1789 38.1169 31.5658C37.4984 32.2684 36.9001 32.9913 36.312 33.7143C36.312 33.4699 36.3323 33.2153 36.3424 32.971L36.3323 32.9608ZM36.0889 31.6269C36.0889 32.2378 36.0585 32.8386 36.0179 33.4495C35.7644 33.195 35.5109 32.9404 35.2675 32.6859C35.5413 32.3397 35.8151 31.9833 36.0889 31.6269C36.0889 32.024 35.8151 31.9833 36.0889 31.6269V31.6269ZM35.9875 38.3677C36.1193 38.4797 36.241 38.5917 36.3728 38.7037C36.2004 38.9379 36.0179 39.1619 35.8252 39.3859C35.8861 39.0499 35.9368 38.7139 35.9875 38.3677C35.9469 38.7139 36.1193 38.4797 35.9875 38.3677ZM35.6731 37.5327C35.2979 37.1865 34.9329 36.8301 34.578 36.4737C35.0242 35.9341 35.4703 35.4046 35.9165 34.8751C35.8354 35.761 35.7543 36.6468 35.6731 37.5327C35.7543 36.6468 35.2979 37.1865 35.6731 37.5327ZM34.0101 33.1135C34.0101 32.7368 34.0101 32.36 34.0101 31.9833C34.2332 32.2073 34.4462 32.4211 34.6693 32.6451C34.4462 32.9404 34.2231 33.2357 34 33.5208C34 33.3783 34 33.2459 34 33.1033L34.0101 33.1135ZM34 34.2743C34.3448 33.8467 34.6895 33.4292 35.0242 33.0015C36.6365 34.6307 36.2004 33.8263 34.3143 36.1988C33.7262 35.7508 33.6147 35.1093 34 34.2743C34.3448 33.8467 34 34.7936 34 34.2743V34.2743ZM33.9696 36.3515C33.9696 36.3515 34.0507 36.4432 34.0913 36.4839C34.0507 36.545 34 36.5959 33.9594 36.657C33.9594 36.5552 33.9594 36.4534 33.9696 36.3515C34.0101 36.3923 33.9696 36.4534 33.9696 36.3515V36.3515ZM33.9392 37.268C34.071 37.0949 34.2129 36.9319 34.3448 36.769C35.2574 37.7363 36.3424 38.7851 35.2472 40.119C33.8783 39.5488 33.4423 38.5917 33.9392 37.268C33.9189 37.7974 34.071 37.0949 33.9392 37.268ZM33.7465 30.7919C33.7465 30.9039 33.7465 31.0159 33.7465 31.1279C33.6958 31.077 33.6451 31.0261 33.5842 30.965C33.6349 30.9039 33.6856 30.8428 33.7465 30.7817C33.7465 30.8938 33.6958 30.8428 33.7465 30.7817V30.7919ZM33.7465 31.6982C33.7465 33.2357 33.9392 33.6328 33.0468 34.814C32.5905 34.2947 32.1545 33.7448 31.7286 33.1848C32.2457 32.5433 32.7832 31.9018 33.3206 31.2807C33.4626 31.4232 33.6045 31.5658 33.7363 31.7083C33.7363 32.1869 33.5944 31.5658 33.7363 31.7083L33.7465 31.6982ZM33.4626 37.2985C33.28 37.5225 33.1076 37.7465 32.9353 37.9705C32.5804 37.6243 32.2254 37.2781 31.8807 36.9218C32.2964 36.4024 32.702 35.8933 33.1178 35.3842C33.5335 35.873 33.9696 36.657 33.4626 37.2985ZM33.564 37.7567C33.564 38.0215 33.5437 38.2862 33.5437 38.5509C33.4321 38.4389 33.3105 38.3371 33.1989 38.2251C33.3206 38.0724 33.4423 37.9095 33.5741 37.7567C33.5741 38.0215 33.4524 37.9095 33.5741 37.7567H33.564ZM25.0461 41.4937C24.8129 41.29 24.5898 41.0864 24.3667 40.8725C24.7216 40.9031 25.0766 40.9336 25.4315 40.954C25.3098 41.1373 25.178 41.3104 25.0563 41.4937C24.823 41.29 25.178 41.3104 25.0563 41.4937H25.0461ZM25.0563 41.9621C25.4213 42.2981 25.7965 42.6239 26.1717 42.9498C25.5937 42.9192 25.0259 42.8785 24.4479 42.8479C24.6507 42.5526 24.8535 42.2574 25.0563 41.9722C25.4213 42.3083 24.8535 42.2675 25.0563 41.9722V41.9621ZM23.8293 40.3838C23.5961 40.17 23.3628 39.9459 23.1296 39.7219C23.5555 39.1008 23.9814 38.4898 24.4073 37.8789C24.9853 38.5509 25.5836 39.2026 26.2123 39.8441C25.7965 40.8624 25.0056 41.0355 23.8293 40.3838C24.458 40.4449 23.5961 40.17 23.8293 40.3838ZM18.5057 39.0193C17.9479 38.4389 17.4004 37.8484 16.8629 37.2476C17.4409 36.545 19.256 36.1886 20.0064 36.9828C19.5095 37.6651 19.0025 38.3371 18.5057 39.0193C19.0025 38.3371 17.9479 38.4389 18.5057 39.0193ZM18.7592 39.8848C18.6172 39.8747 18.4854 39.8543 18.3434 39.8441L18.5158 39.6201C18.5969 39.7117 18.678 39.7932 18.7592 39.8848C18.678 39.7932 18.6172 39.8747 18.7592 39.8848ZM15.6055 39.5386C15.5143 39.447 15.423 39.3655 15.3317 39.2739C15.7475 38.6731 16.1835 38.0927 16.6297 37.5327C17.1671 38.1436 17.7147 38.7546 18.2623 39.3554C17.7654 40.3023 16.8731 40.3736 15.6055 39.5488C15.5143 39.4572 16.3863 39.6405 15.6055 39.5488V39.5386ZM17.664 40.17C17.4815 40.4245 17.2888 40.6689 17.1063 40.9234C16.7514 40.6078 16.4066 40.2921 16.0618 39.9663C16.5993 40.0376 17.1266 40.0987 17.664 40.17C17.4815 40.4245 17.1266 40.1089 17.664 40.17V40.17ZM16.1126 36.3821C16.4472 36.4228 16.7818 36.4737 17.1164 36.5145C16.9745 36.6876 16.8325 36.8607 16.6905 37.0338C16.4979 36.8199 16.3052 36.5959 16.1126 36.3821C16.4472 36.4228 16.3052 36.6061 16.1126 36.3821V36.3821ZM17.735 36.2293C17.9986 35.9341 18.2623 35.649 18.5259 35.3537C18.8504 35.7202 19.1749 36.0766 19.5095 36.433C18.9214 36.3617 18.3333 36.3006 17.735 36.2293C18.3231 36.3006 17.9986 35.9341 17.735 36.2293ZM20.3005 37.2781C20.625 37.6243 20.9596 37.9705 21.2841 38.3066C20.118 39.9052 20.0673 40.6383 18.7693 39.2841C19.2763 38.612 19.7935 37.9502 20.2903 37.2781C20.6148 37.6243 19.7833 37.9502 20.2903 37.2781H20.3005ZM20.4526 37.0745C20.7872 36.545 21.3652 36.5654 22.1663 37.1254C21.9229 37.4411 21.6897 37.7669 21.4565 38.0826C21.1218 37.7465 20.7872 37.4105 20.4526 37.0745C20.483 37.0338 20.7872 37.4105 20.4526 37.0745V37.0745ZM20.118 40.4551C20.7771 40.5263 21.4362 40.5976 22.0953 40.6587C21.8317 41.0558 21.5782 41.4428 21.3145 41.8399C20.8785 41.4224 20.4526 41.0049 20.0267 40.5772C20.0571 40.5365 20.0875 40.4958 20.118 40.4551C20.0875 40.4958 20.7771 40.5263 20.118 40.4551ZM20.412 40.0478C20.7771 39.5488 21.1523 39.0499 21.5275 38.5509C21.9128 38.9481 22.3083 39.3452 22.7139 39.7321C22.3184 40.6282 21.5579 40.73 20.4222 40.0376C20.7872 39.5386 21.0711 40.0987 20.4222 40.0376L20.412 40.0478ZM21.6998 38.3269C22.3083 37.5327 23.2412 36.4839 24.1842 37.604C23.7482 38.2251 23.3121 38.8462 22.8863 39.4775C22.4908 39.1008 22.0953 38.7139 21.6998 38.3269C22.0953 38.7139 21.9939 37.94 21.6998 38.3269ZM22.9572 39.9867C23.0789 40.0987 23.1905 40.2209 23.3121 40.3329C23.1296 40.3125 22.9471 40.2921 22.7646 40.282C22.8254 40.1801 22.8964 40.0885 22.9674 39.9867C23.0891 40.0987 22.8964 40.0885 22.9674 39.9867H22.9572ZM24.5695 37.6651C25.1881 36.6265 26.2731 36.6265 27.8448 37.6447C27.3581 38.2964 26.8714 38.9481 26.4049 39.5997C25.7762 38.9786 25.1678 38.3269 24.5797 37.6651C24.6507 37.5734 25.1678 38.3371 24.5797 37.6651H24.5695ZM26.4252 40.0478C26.6382 40.2616 26.8511 40.4652 27.0742 40.6689C26.7294 40.6383 26.3847 40.6078 26.05 40.5772C26.1818 40.4041 26.3035 40.2209 26.4353 40.0478C26.6483 40.2616 26.3035 40.2209 26.4353 40.0478H26.4252ZM26.5976 39.8136C28.2606 37.5327 28.1491 37.0439 30.1568 38.5917C29.2949 40.5365 28.1288 41.3002 26.5976 39.8136C26.8308 40.0376 27.1147 39.1008 26.5976 39.8136ZM28.3823 37.4105L28.4735 37.2985C28.5344 37.3494 28.5952 37.4003 28.6561 37.4411L28.3823 37.4105C28.4735 37.4105 28.3823 37.4105 28.3823 37.4105ZM31.252 36.6163C31.252 37.5225 31.0492 37.4309 30.3495 38.3269C30.1061 38.1436 29.8628 37.9604 29.6093 37.7669C31.4953 37.8891 29.1631 37.4411 28.6561 37.0338C29.1022 36.4432 29.5586 35.8628 30.025 35.2824C30.4205 35.7304 30.8362 36.1683 31.2418 36.6061C31.2418 36.7894 30.8261 36.1683 31.2418 36.6061L31.252 36.6163ZM30.1771 35.1093C30.5219 34.6816 30.8667 34.254 31.2114 33.8365C31.2418 34.6511 31.252 35.4657 31.2621 36.2803C30.8971 35.8933 30.5422 35.5166 30.1873 35.1195C30.532 34.6918 30.5422 35.5166 30.1873 35.1195L30.1771 35.1093ZM31.2621 37.716C31.2621 38.1538 31.2621 38.5815 31.2621 39.0193C31.0492 38.8564 30.8362 38.6833 30.6233 38.5204C30.8362 38.2455 31.0492 37.9807 31.2621 37.7058C31.2621 38.1436 31.2317 37.7465 31.2621 37.7058V37.716ZM28.5445 41.1576C29.1631 41.1882 29.7816 41.2187 30.3901 41.2493C30.1163 41.6057 29.8526 41.9621 29.589 42.3184C29.1834 42.013 28.7778 41.6973 28.3721 41.3715L28.5445 41.1576C29.1631 41.1882 28.4837 41.2289 28.5445 41.1576V41.1576ZM28.8082 40.8216C29.3456 40.1394 29.883 39.4572 30.4205 38.775C30.8058 39.0804 31.2013 39.3859 31.5765 39.7016C31.0897 41.0762 30.167 41.4428 28.8082 40.8114C29.3456 40.1292 29.4064 40.8624 28.8082 40.8114V40.8216ZM31.4446 39.1721C31.1607 38.3371 31.2621 37.6549 31.7286 37.1152C32.0733 37.4716 32.4283 37.8178 32.7832 38.164C32.4485 38.5917 32.1139 39.0092 31.7894 39.4368C31.6779 39.3452 31.5663 39.2637 31.4446 39.1721C31.5562 39.2637 31.5258 38.5408 31.4446 39.1721ZM31.5562 33.419C31.9719 33.979 32.408 34.5289 32.8541 35.0685C32.4485 35.6082 32.0429 36.1377 31.6373 36.6672C31.6677 35.5879 31.6373 34.4983 31.5562 33.4088C31.9719 33.9688 31.6373 34.4983 31.5562 33.4088V33.419ZM33.3307 35.1398C33.4524 34.9871 33.5741 34.8445 33.6958 34.6918C33.6856 34.9565 33.6755 35.2315 33.6654 35.4962C33.5538 35.374 33.4423 35.262 33.3409 35.1398C33.4626 34.9871 33.4524 35.262 33.3409 35.1398H33.3307ZM26.8207 34.6103C27.3784 34.6103 27.9463 34.6103 28.504 34.6002C28.5851 33.9688 28.1085 33.867 27.0742 34.2947C28.4431 32.5637 29.883 30.8836 31.2418 29.1526C31.8604 29.7839 32.479 30.4152 33.0874 31.0465C32.5601 31.6778 32.0328 32.3193 31.5156 32.9608C31.3939 31.9324 31.2723 30.9141 31.1607 29.8857C31.4244 31.6371 31.2317 33.2866 29.9642 34.8954L29.0008 33.7754C28.4938 34.1827 28.7778 34.6103 29.8222 35.0685C29.3557 35.6591 28.8893 36.2599 28.433 36.8708C27.7434 36.3006 27.0843 35.6999 26.5266 35.0075C26.628 34.8751 26.7193 34.7529 26.8207 34.6205C27.3784 34.6205 26.7193 34.7427 26.8207 34.6205V34.6103ZM28.2505 37.105C27.6116 38.1029 26.5266 38.0826 25.0157 37.0439C25.4619 36.4126 25.9283 35.7813 26.4049 35.1602C26.8917 35.8933 27.5508 36.5246 28.2505 37.105C28.1795 37.1967 27.5508 36.5246 28.2505 37.105V37.105ZM24.6608 34.5492C25.2388 34.5798 25.8067 34.6002 26.3846 34.6103L26.3137 34.7122C26.2325 34.6002 26.1413 34.7325 26.2123 34.8445C25.543 35.7406 24.0727 37.4716 23.6062 36.9014C23.3628 36.8708 23.1195 36.8505 22.8761 36.8199C23.4642 36.0562 24.0625 35.3027 24.6709 34.5594C25.2489 34.59 24.0625 35.3129 24.6709 34.5594L24.6608 34.5492ZM22.4401 34.3965C23.0181 34.4474 23.5961 34.4882 24.1741 34.5187C23.6164 36.545 22.5009 37.2374 20.8176 36.5857C21.3652 35.8628 21.9026 35.1296 22.4299 34.3965C23.0079 34.4474 21.9026 35.1296 22.4299 34.3965H22.4401ZM19.7326 34.1012C20.483 34.203 21.2435 34.2845 21.9939 34.3558C20.0774 36.8301 20.5743 37.268 18.678 35.2009C19.0938 34.8954 19.4487 34.5289 19.7225 34.1012C20.4729 34.203 19.7225 34.1012 19.7225 34.1012H19.7326ZM13.3645 32.9913C15.3723 33.419 17.4206 33.7957 19.469 34.0707C19.1344 34.366 18.8099 34.6816 18.4955 34.9973C18.242 34.7122 17.9784 34.4271 17.7249 34.1419C17.3192 34.4576 17.522 34.7936 18.3536 35.15C16.0923 37.5022 14.8552 34.9362 13.3645 32.9913C15.3723 33.419 14.1453 34.0198 13.3645 32.9913V32.9913ZM15.6055 36.321C15.8895 36.6672 16.1734 37.0032 16.4675 37.3392C16.0111 37.9196 15.5853 38.5204 15.1796 39.1212C14.0845 38.0622 13.0299 36.9421 12.0159 35.8017C13.2124 35.9748 14.409 36.1479 15.6157 36.321C15.8996 36.6672 14.4191 36.1581 15.6157 36.321H15.6055ZM11.3466 38.775C10.2718 37.6243 9.2273 36.433 8.21328 35.2213C12.2998 35.8628 12.2085 36.6876 14.9566 39.447C14.7639 39.7423 11.5798 39.0193 11.3466 38.7648V38.775ZM16.3356 41.9926C14.3887 42.1046 12.9285 41.2493 11.9652 39.4266C14.3583 39.7728 15.0377 39.6099 16.8629 41.29C16.6905 41.5242 16.508 41.7584 16.3356 41.9926C15.6258 41.8806 16.508 41.7584 16.3356 41.9926V41.9926ZM16.7007 42.0435C16.8325 41.8602 16.9745 41.6871 17.1063 41.5038C17.3699 41.7482 17.6336 41.9824 17.8972 42.2166C17.4916 42.1657 17.0962 42.1046 16.6905 42.0435C16.8224 41.8602 17.086 42.1046 16.6905 42.0435H16.7007ZM17.3699 41.1576C18.0392 40.2718 18.678 39.8136 19.5805 40.73C19.2358 41.2187 18.9011 41.7075 18.5665 42.1963C18.1609 41.8501 17.7654 41.5038 17.3699 41.1576C17.6032 40.8522 17.7654 41.514 17.3699 41.1576V41.1576ZM20.8683 42.5628C20.1788 42.5017 19.4893 42.4203 18.7997 42.3286C19.1242 41.8602 19.4487 41.3918 19.7833 40.9336C20.2092 41.3715 20.6453 41.7991 21.0813 42.2268C21.0103 42.3388 20.9393 42.4508 20.8683 42.5628C20.3208 42.5119 20.9393 42.4508 20.8683 42.5628V42.5628ZM21.2537 42.6036L21.3348 42.4712C21.3855 42.5221 21.4362 42.573 21.4869 42.6239C21.4058 42.6239 21.3247 42.6036 21.2435 42.6036C21.274 42.5628 21.3247 42.6036 21.2435 42.6036H21.2537ZM21.5782 42.0944C22.7544 40.282 23.3121 40.3736 24.8636 41.7788C23.9713 43.0618 22.7747 43.2349 21.5782 42.0944C21.8824 41.626 21.781 42.2879 21.5782 42.0944V42.0944ZM22.5922 43.0516C23.0282 43.0923 23.4744 43.1432 23.9104 43.1738C23.7583 43.3978 23.6062 43.6116 23.4541 43.8356C23.16 43.5709 22.8761 43.3163 22.5922 43.0516C23.0282 43.0923 22.8761 43.3163 22.5922 43.0516V43.0516ZM26.1717 43.7542C25.7661 44.2226 25.3909 44.7317 25.0563 45.251C24.5898 44.8437 24.1234 44.4364 23.6671 44.0291C24.1335 42.8378 25.0766 42.6137 26.4759 43.3571C26.3745 43.4894 26.2731 43.6218 26.1717 43.7542V43.7542ZM26.7598 43.0007C26.1007 42.9701 25.6038 42.5323 25.2692 41.7075C25.8979 40.8216 27.0742 40.7198 27.9463 41.4733C27.5508 41.9824 27.1553 42.4915 26.7598 43.0007C26.7598 43.0007 27.1046 42.5526 26.7598 43.0007V43.0007ZM28.1896 44.2531C27.855 43.968 27.5204 43.6829 27.1857 43.3978C27.7232 43.4181 28.2606 43.4283 28.798 43.4283C28.5952 43.7033 28.3924 43.9782 28.1896 44.2531C28.3924 43.9782 27.855 43.968 28.1896 44.2531ZM29.011 43.133C28.3823 43.0923 27.7434 43.0516 27.1147 43.021C27.4697 42.573 27.8246 42.125 28.1795 41.677C28.5749 42.013 28.9806 42.3388 29.3862 42.6443C29.2645 42.8072 29.1428 42.9701 29.0211 43.133C28.3924 43.0923 29.1428 42.9701 29.0211 43.133H29.011ZM29.4166 43.1636C29.4977 43.0618 29.5788 42.9599 29.6498 42.8479C29.8222 42.9701 29.9844 43.0923 30.1568 43.2043C29.9033 43.184 29.66 43.1738 29.4166 43.1534C29.4977 43.0516 29.6701 43.1738 29.4166 43.1534V43.1636ZM31.3737 44.6706C31.4041 44.4568 31.4446 44.2531 31.4751 44.0393C32.6006 44.691 27.0032 40.4041 29.8729 42.5628C30.2684 41.3307 31.0492 40.9235 32.2254 41.3511C32.2863 40.8216 31.8908 40.7198 31.0188 41.0456C31.2925 40.6791 31.5765 40.3227 31.8604 39.9561C32.5702 40.5263 33.28 41.1067 34 41.6668C33.1381 42.685 32.266 43.6829 31.3737 44.6706C31.4041 44.4568 32.266 43.6829 31.3737 44.6706V44.6706ZM32.0835 39.6812C32.408 39.2637 32.7325 38.8564 33.0569 38.4389C33.4727 38.8361 33.7161 40.4449 33.8377 39.1619C34.2636 39.5488 34.6997 39.9358 35.1458 40.3125C34.8518 40.6689 34.5476 41.0253 34.2535 41.3817C33.5335 40.8114 32.8136 40.2412 32.0835 39.6812C32.8136 40.2412 32.408 39.2637 32.0835 39.6812ZM35.9571 42.7868C35.4703 42.3694 34.9735 41.9722 34.4766 41.5649C35.2168 40.6994 35.9368 39.8339 36.6466 38.9481C37.1435 39.3655 37.6505 39.7525 38.1778 40.119L35.9571 42.7868C35.4703 42.3694 36.6973 41.901 35.9571 42.7868V42.7868ZM38.1981 39.7728C37.7519 39.3961 37.3159 39.0295 36.89 38.6528C37.326 38.1029 37.7722 37.5429 38.2082 36.9828C38.1778 37.9196 38.1778 38.8462 38.1981 39.783C37.7519 39.4063 38.1778 38.8564 38.1981 39.783V39.7728ZM38.2285 36.3108C37.7113 37.0236 37.184 37.7363 36.6466 38.4389C35.9773 37.8382 35.7847 35.1093 36.3931 34.3965C36.4539 34.4576 38.2386 36.2192 38.2285 36.3108C37.7113 37.0236 38.2285 36.3006 38.2285 36.3108V36.3108ZM38.2488 35.6795C37.7113 35.1602 37.1739 34.6307 36.6466 34.091C37.2246 33.419 37.7925 32.747 38.3705 32.0647C38.3502 33.2663 38.2995 34.4678 38.2589 35.6795C37.7418 35.1704 38.3096 34.478 38.2589 35.6795H38.2488ZM52.9623 11.3944C54.2805 12.0664 54.5543 12.8607 53.7634 13.7567C53.3172 13.3087 52.8609 12.8505 52.4046 12.4024C52.5871 12.0664 52.7696 11.7304 52.9522 11.3944C53.3071 11.9341 52.7696 11.7304 52.9522 11.3944H52.9623ZM52.2322 12.7385C52.6784 13.1967 53.1347 13.6549 53.5809 14.1131C53.2868 14.6833 52.9927 15.2535 52.6885 15.8136C52.2221 15.3757 51.7556 14.9481 51.2689 14.5306C51.5832 13.9298 51.8976 13.3392 52.2221 12.7487C52.6682 13.2069 51.8976 13.3392 52.2221 12.7487L52.2322 12.7385ZM51.1066 14.8564C51.5934 15.2739 52.0598 15.7117 52.5161 16.1598C52.1511 16.8624 51.7759 17.5649 51.4007 18.2675C50.9343 17.8501 50.4577 17.4326 49.9811 17.0151C50.3563 16.3023 50.7314 15.5794 51.1066 14.8666C51.563 15.2739 50.7314 15.5794 51.1066 14.8666V14.8564ZM46.0973 24.6316C46.4827 24.9778 46.868 25.3138 47.2533 25.66C46.5537 26.831 45.8438 28.0019 45.1442 29.1831C44.8095 27.503 45.134 25.9858 46.0973 24.6417C46.4827 24.9879 45.8134 25.1916 46.0973 24.6417V24.6316ZM45.7729 23.9086C45.3977 23.5726 45.0225 23.2264 44.6574 22.8802C45.0225 22.1878 45.3672 21.4954 45.712 20.803C46.1075 21.1797 46.5131 21.5463 46.9187 21.923C46.5638 22.6154 46.219 23.2977 45.8743 23.9901C45.8438 23.9595 45.8134 23.9391 45.783 23.9086H45.7729ZM46.2494 24.3261C46.5942 23.6439 46.939 22.9616 47.2838 22.2692C47.7096 22.6562 48.1355 23.0329 48.5614 23.4097C48.1964 24.0512 47.8313 24.6825 47.4561 25.3138C47.0505 24.9879 46.6449 24.6621 46.2494 24.3159C46.5942 23.6337 46.6449 24.6519 46.2494 24.3159V24.3261ZM49.6363 20.915C49.7073 20.9862 49.7783 21.0473 49.8492 21.1186C49.4943 21.7805 49.1293 22.4423 48.7541 23.094C48.3181 22.7173 47.882 22.3405 47.4561 21.9536C47.811 21.251 48.166 20.5586 48.5209 19.856C48.8961 20.2124 49.2611 20.5688 49.6363 20.9251V20.915ZM48.7034 19.4894C49.0684 18.7767 49.4335 18.0639 49.7985 17.3511C50.2751 17.7686 50.7416 18.1861 51.208 18.6137C50.8227 19.3265 50.4374 20.0393 50.0419 20.752C49.5957 20.3346 49.1496 19.9069 48.7034 19.4894C48.7744 19.5505 49.0684 18.7767 48.7034 19.4894ZM48.8758 23.6948C49.2611 24.0308 49.6464 24.3668 50.0419 24.7028C49.6971 25.3138 49.3524 25.9349 48.9975 26.5459C48.602 26.2404 48.2065 25.9247 47.8111 25.6192C48.166 24.9778 48.5209 24.3464 48.8758 23.705C49.2611 24.041 48.5209 24.3363 48.8758 23.705V23.6948ZM49.0583 23.3587C49.4234 22.7071 49.7884 22.0554 50.1433 21.3935C50.5185 21.7499 50.9038 22.1165 51.279 22.4729C50.9241 23.1042 50.5793 23.7355 50.2244 24.3566C49.8391 24.0206 49.4436 23.6948 49.0583 23.3587C49.4436 23.6948 49.1394 23.2162 49.0583 23.3587ZM50.336 21.0372C50.7213 20.3244 51.1168 19.6116 51.492 18.8887C51.8874 19.2552 52.2728 19.6218 52.6581 19.9884C52.2626 20.6909 51.8773 21.4037 51.4818 22.1063C51.0965 21.7499 50.7213 21.3834 50.336 21.027C50.7213 20.3142 50.7213 21.3834 50.336 21.027V21.0372ZM49.2307 13.2272C49.758 13.6854 50.2954 14.1436 50.8227 14.612C50.4374 15.3146 50.0419 16.0274 49.6566 16.73C49.1901 16.3227 48.7135 15.9154 48.2369 15.5081C48.5817 14.7546 48.9062 13.9909 49.2307 13.2272C48.9062 13.9909 49.758 13.6854 49.2307 13.2272ZM48.0848 15.8543C48.5513 16.2616 49.0177 16.6689 49.4741 17.0762C49.0989 17.7686 48.7237 18.4712 48.3485 19.1738C47.9327 18.7767 47.5068 18.3795 47.0911 17.9824C47.4257 17.2798 47.7603 16.5671 48.0848 15.8543C48.5513 16.2616 47.7603 16.5671 48.0848 15.8543V15.8543ZM46.9288 18.3286C47.3446 18.7257 47.7603 19.1229 48.166 19.52C47.8009 20.2124 47.4359 20.915 47.0708 21.6176C46.6652 21.251 46.2596 20.8844 45.854 20.5077C46.2089 19.7847 46.5638 19.0618 46.9187 18.3286C47.3345 18.7257 46.7565 18.6646 46.9187 18.3286H46.9288ZM45.1949 16.6587C45.6816 17.1373 46.1785 17.6057 46.6652 18.0842C46.3204 18.8174 45.9554 19.5403 45.5802 20.2531C45.1036 19.8051 44.6169 19.3571 44.1403 18.8988C44.4952 18.1453 44.8399 17.402 45.1847 16.6587C45.6715 17.1373 44.8399 17.402 45.1847 16.6587H45.1949ZM44.0084 19.184C44.4749 19.6422 44.9515 20.0902 45.4281 20.5484C45.063 21.2306 44.698 21.9027 44.3228 22.5849C43.8665 22.147 43.4203 21.7092 42.9741 21.2713C43.329 20.5891 43.6738 19.8967 44.0084 19.1941C44.4749 19.6523 43.6738 19.8865 44.0084 19.1941V19.184ZM41.8688 20.1207C42.1933 19.4181 42.5077 18.7054 42.8018 18.0028C43.106 18.3083 43.4203 18.6137 43.7347 18.9192C43.3899 19.6116 43.0451 20.2938 42.6801 20.9659C42.4063 20.691 42.1325 20.4058 41.8688 20.1207C42.1933 19.4181 42.1325 20.4058 41.8688 20.1207V20.1207ZM38.5226 39.6914C38.6138 38.7139 38.6544 37.7262 38.6747 36.7385C39.0904 37.156 39.496 37.5734 39.9219 37.9807C39.4555 38.5509 38.989 39.1313 38.5226 39.6914C38.6138 38.7139 38.989 39.1212 38.5226 39.6914V39.6914ZM40.0537 36.1988C40.0537 36.5756 39.9929 37.0236 40.0132 37.4512C39.6076 37.0439 39.1918 36.6366 38.7862 36.2293C39.2425 35.6388 39.6785 35.038 40.1044 34.4271C40.0842 35.0176 40.074 35.6082 40.0639 36.1988C40.0639 36.5756 40.074 35.6082 40.0639 36.1988H40.0537ZM40.1247 33.6736C39.638 34.3354 39.1715 34.9973 38.6949 35.6591C38.6949 34.4882 38.6949 33.3172 38.6949 32.1564C39.7292 32.4211 40.2058 32.9302 40.1247 33.6634C39.638 34.3252 40.1247 33.5921 40.1247 33.6634V33.6736ZM40.145 33.0728C38.4009 31.6676 38.5428 31.0669 40.0436 29.5497C39.5974 30.0181 39.1513 30.4966 38.7051 30.965C38.7152 28.8573 38.7051 26.7495 38.6747 24.6316C42.457 33.3884 39.1107 22.035 40.4086 27.7576C40.7433 29.2646 40.2058 31.4945 40.145 33.0626C40.003 32.9506 40.1551 32.6655 40.145 33.0626V33.0728ZM40.4086 36.5043C40.4086 36.7996 40.287 34.1521 40.5405 33.7856C43.1161 35.8424 42.9336 34.2947 40.3884 37.4105C40.3884 37.105 40.4086 36.7996 40.4086 36.5043C40.4188 35.8933 40.4086 36.7996 40.4086 36.5043V36.5043ZM42.3454 38.7444C42.1832 38.9582 42.021 39.1721 41.8587 39.3757C39.7394 37.0134 39.9929 38.5509 42.3556 35.5166C43.2276 37.0134 43.2276 38.0927 42.3454 38.7444V38.7444ZM42.4671 30.8225C42.1528 30.5883 41.8283 30.3439 41.5139 30.1097C42.9843 31.2196 42.3759 32.8793 42.3556 34.7122C41.808 34.3151 41.2503 33.9281 40.7129 33.5106C40.9258 33.1644 41.1489 32.8182 41.3618 32.472C40.9562 32.1258 40.6723 32.3498 40.4999 33.1543C40.5709 30.9956 40.6824 28.8369 40.8244 26.6884C42.6699 27.5335 43.2276 28.9082 42.4671 30.8123C42.1528 30.5781 42.5077 29.9773 42.4671 30.8123V30.8225ZM42.8119 25.436C42.5584 25.9553 42.6294 27.9307 42.6294 27.9714C39.709 25.3851 41.2706 24.4788 42.8322 21.5259C43.2682 21.9739 43.7144 22.4118 44.1707 22.8496C43.8361 23.4606 43.5116 24.0613 43.1972 24.6825C43.2479 23.9595 43.3088 23.2366 43.3595 22.5136C42.1933 22.4118 42.0108 23.3893 42.8119 25.436C42.7612 25.548 42.893 24.4585 42.8119 25.436V25.436ZM42.8423 33.1135C42.8525 32.5026 42.8727 31.9018 42.893 31.2909C43.1262 31.464 43.3493 31.6371 43.5826 31.8102C43.329 32.248 43.0857 32.6757 42.8423 33.1135C43.0857 32.6757 42.8525 32.5026 42.8423 33.1135ZM43.6434 31.7083C42.4773 31.1483 42.2542 30.1301 42.9843 28.6638C43.5217 29.1424 44.0591 29.6108 44.5966 30.0893C44.2721 30.629 43.9577 31.1687 43.6434 31.7185C43.4 31.5352 43.9577 31.1789 43.6434 31.7185V31.7083ZM44.8095 29.733L44.7588 29.8144C44.4546 29.5599 44.1504 29.3053 43.8462 29.0507C44.3127 28.4398 44.6676 27.7474 44.9008 26.9939C44.8602 27.9103 44.8197 28.8267 44.7994 29.7431C44.7791 29.7737 44.8197 28.8267 44.7994 29.7431L44.8095 29.733ZM45.0225 24.9879C45.0428 26.3931 44.5662 27.6761 43.5826 28.8267C41.8891 27.3503 43.7448 24.601 44.4952 23.1755C44.8907 23.5522 45.2963 23.929 45.712 24.2955C45.5802 24.5603 45.4484 24.8352 45.3165 25.0999C45.3672 24.9167 45.2658 24.8759 45.0123 24.9778C44.9921 25.2629 45.0225 24.7741 45.0123 24.9778L45.0225 24.9879ZM45.1442 33.1441C45.1036 32.2786 45.1036 31.4029 45.1137 30.5374C45.4585 30.8428 45.8134 31.1381 46.1683 31.4334C45.8337 32.0036 45.4889 32.5739 45.1442 33.1441C45.4889 32.5739 45.1239 32.4211 45.1442 33.1441ZM47.1215 31.7491C46.9998 31.6473 46.8781 31.5454 46.7463 31.4334C46.8883 31.189 47.0201 30.9447 47.1621 30.6901C47.1519 31.0363 47.1317 31.3927 47.1215 31.7389C46.9998 31.6371 47.1317 31.3927 47.1215 31.7389V31.7491ZM47.2533 28.2972C47.2128 29.682 47.0201 29.9977 46.361 31.1178C45.9655 30.8021 45.5802 30.4763 45.1847 30.1606C46.0264 28.7758 46.8274 27.3706 47.6082 25.9655C47.9936 26.2913 48.3789 26.6171 48.7744 26.9226C48.3789 27.6252 47.9733 28.3278 47.5677 29.0304C47.8212 28.4296 47.7198 28.1852 47.2533 28.2972ZM47.5068 32.9913C47.5068 32.8284 47.5068 32.6757 47.517 32.5128C47.5778 32.5637 47.6387 32.6044 47.6995 32.6553C47.6285 32.7673 47.5677 32.8793 47.4967 32.9913C47.4967 32.8284 47.5677 32.8793 47.4967 32.9913H47.5068ZM49.7174 29.4377C49.0887 30.4152 48.4702 31.3825 47.8719 32.3702C46.432 31.1381 48.6831 27.9816 49.1191 27.1873C49.5755 27.5335 50.0419 27.8696 50.5084 28.1852C50.2447 28.6027 49.9811 29.01 49.7174 29.4275V29.4377ZM50.701 27.8899C50.2447 27.5234 49.7985 27.1568 49.3321 26.8004C49.6769 26.1895 50.0115 25.5785 50.3563 24.9676C50.8227 25.3647 51.2993 25.7618 51.7759 26.1487C51.421 26.7291 51.0559 27.3095 50.6909 27.8797C50.2346 27.5132 51.0559 27.2993 50.6909 27.8797L50.701 27.8899ZM51.9888 25.8229C51.5021 25.436 51.0255 25.0389 50.5591 24.6316C50.9038 24.0104 51.2587 23.3893 51.6035 22.758C52.07 23.206 52.5364 23.6439 53.013 24.0919C52.6885 24.6723 52.3438 25.2527 51.999 25.8229C51.7049 25.5887 52.3438 25.2527 51.999 25.8229H51.9888ZM54.0372 25.0694C54.1386 25.161 54.24 25.2832 54.3515 25.3952L53.3679 27.0041C53.013 26.6782 52.6581 26.3728 52.2829 26.0775C52.6175 25.5072 52.9522 24.937 53.2665 24.3566C53.52 24.601 53.7735 24.8352 54.0372 25.0796V25.0694ZM54.3211 21.587C53.9662 22.3201 53.591 23.0329 53.2057 23.7355C52.7392 23.2977 52.2626 22.8496 51.7962 22.4118C52.1916 21.699 52.577 20.9964 52.9623 20.2837C53.4186 20.7215 53.8648 21.1593 54.3211 21.587C53.8648 21.1593 53.9662 22.3201 54.3211 21.587ZM52.8913 19.6014C52.4959 19.245 52.1004 18.8887 51.7049 18.5323C52.07 17.8297 52.4452 17.1373 52.8001 16.4347C53.1955 16.8318 53.5809 17.2391 53.9662 17.6464C53.6113 18.2981 53.2462 18.9498 52.8812 19.6014C52.4857 19.245 53.2462 18.9498 52.8812 19.6014H52.8913ZM54.1893 17.2391C53.7938 16.842 53.3882 16.4652 52.9826 16.0783C53.2767 15.5081 53.5606 14.9481 53.8547 14.3778C54.2603 14.7953 54.6557 15.2332 55.0715 15.6506C54.7774 16.1801 54.4935 16.7096 54.1994 17.2391C53.804 16.842 54.4935 16.7096 54.1994 17.2391H54.1893Z" fill="black" fill-opacity="0.4"/>
<path d="M31.8912 15.9457C31.1916 17.3814 30.2079 17.9618 28.9404 17.6767C29.3359 17.1879 27.0645 17.3814 26.9124 17.2897C27.3788 17.4832 27.8453 17.6869 28.3117 17.8803C26.4459 19.7132 26.4763 20.8841 23.7283 20.5074C24.3773 19.8353 26.1518 17.3305 26.6487 16.8723C25.442 17.972 24.215 20.6907 22.4608 20.263C23.0996 19.7437 23.7384 19.2244 24.3874 18.7051C24.0934 18.9393 20.4733 19.9575 21.7611 20.375C21.2237 21.5154 20.4834 21.8617 19.5404 21.4136C19.9156 21.0776 21.5481 19.1022 21.7611 18.9393C20.311 19.9983 19.7939 21.5765 17.9889 20.9554C17.7557 21.4442 18.0599 21.6478 18.8914 21.5664C18.3337 22.106 18.1106 22.5642 17.3095 22.4115C18.3033 21.5053 15.1395 22.1875 16.5997 22.5744C16.1332 23.3788 15.5248 23.6028 14.7744 23.2668C15.1091 23.0123 15.4538 22.7475 15.7885 22.493C15.0989 23.0428 13.081 24 12.0569 23.7352C11.8541 24.1731 12.1177 24.3258 12.8681 24.2036C12.4523 24.9571 11.8845 25.2117 11.1747 24.9673C11.8946 24.4785 9.12632 24.7942 9.04519 24.7636C9.50151 24.896 9.95782 25.0284 10.4141 25.1506C9.58263 26.0263 8.55846 26.3317 7.33149 26.0568C8.18327 25.7615 8.42664 25.4255 8.06159 25.0488C6.09437 26.4845 5.89157 27.3805 3.14355 27.3805H5.5468C5.15133 27.9406 4.74572 28.4904 4.35025 29.0403C4.9688 28.022 6.28704 27.4111 7.66612 27.3398C7.007 28.0933 6.34788 28.8366 5.68876 29.5901C6.1248 29.0199 9.46095 27.0547 8.45706 27.0241C8.94379 26.3216 9.59277 26.0772 10.4141 26.3114C10.0592 26.6372 9.71445 26.9631 9.37982 27.2991C9.4508 27.1769 9.37982 27.126 9.15674 27.1463L8.98435 27.6962C9.21758 26.9325 13.3041 26.1077 11.2254 25.9855C11.7324 25.2931 12.4016 25.1404 13.2534 25.5171C12.8681 25.9041 12.4827 26.291 12.0873 26.6779C12.8681 25.8939 15.9811 24.7636 17.3704 24.6211C16.985 25.0386 18.7292 24.2953 18.0193 24.2851C18.4351 23.7963 19.0232 23.7658 19.7939 24.1934C19.8851 23.5927 19.4593 23.4501 18.5162 23.776C18.8306 23.4603 21.8017 22.605 21.7408 22.605C22.2478 21.7802 23.0895 21.6376 24.2657 22.1875C23.0185 22.6864 22.6839 23.1752 23.2821 23.6436C24.0122 22.8799 25.2291 21.0471 26.3648 20.9147C24.7626 22.4115 31.8405 17.5036 30.4412 17.6665C32.0839 17.0861 32.5503 16.5057 31.8608 15.9253L31.8912 15.9457ZM8.02103 27.0343C7.49373 27.0343 6.9563 27.0343 6.429 27.0445C6.94616 26.1688 7.74724 25.9346 8.82211 26.3419C8.54832 26.5659 8.28467 26.8001 8.03117 27.0343C7.50387 27.0343 8.28467 26.79 8.03117 27.0343H8.02103ZM10.7995 25.9957C10.4648 25.9855 10.1302 25.9754 9.78543 25.9855C10.2316 25.2931 10.7995 25.0997 11.4687 25.395C11.2456 25.5986 11.0225 25.7921 10.7995 25.9957C11.0225 25.7921 10.4648 25.9855 10.7995 25.9957ZM17.0053 22.7068C17.1878 22.7475 17.3704 22.7883 17.563 22.829C17.2284 23.5418 16.7315 23.7658 16.0927 23.5112C16.3969 23.2465 16.7112 22.9715 17.0154 22.7068C17.198 22.7475 16.7112 22.9817 17.0154 22.7068H17.0053ZM14.4601 23.5214C14.7237 23.5825 14.9874 23.6436 15.251 23.7047C14.8657 24.3258 14.3283 24.4684 13.6489 24.112C13.9227 23.9185 14.1863 23.7149 14.4601 23.5214C14.1863 23.7149 14.7237 23.5825 14.4601 23.5214ZM13.6894 25.1506C13.2331 25.1506 12.7768 25.1506 12.3306 25.12C13.2027 24.4174 13.152 24.3563 14.3384 24.5396C14.1255 24.7433 13.9024 24.9469 13.6894 25.1506C13.9024 24.9469 13.2331 25.1506 13.6894 25.1506ZM15.1395 25.0997C14.8251 25.12 14.5108 25.1302 14.1965 25.1404C14.5311 24.5905 14.9975 24.4276 15.5857 24.6822L15.1294 25.1098C14.815 25.1302 15.2815 24.9673 15.1294 25.1098L15.1395 25.0997ZM15.9609 24.336C15.6972 24.336 15.4336 24.3258 15.1801 24.3054C15.4843 23.7861 15.8899 23.6639 16.3969 23.9287C16.2549 24.0611 16.1028 24.2036 15.9609 24.336C15.7175 24.336 16.1028 24.2036 15.9609 24.336V24.336ZM17.705 24.3156C17.269 24.3156 16.8329 24.3258 16.3969 24.336C16.7518 23.8269 17.2385 23.7658 17.8672 24.1323C17.8064 24.1934 17.7557 24.2545 17.6948 24.3156C17.2588 24.3156 17.7557 24.2545 17.6948 24.3156H17.705ZM18.212 23.776C17.847 23.7352 17.492 23.6945 17.127 23.6538C17.5427 22.8799 18.141 22.6762 18.9117 23.0428C18.6785 23.2872 18.4351 23.5316 18.212 23.776C17.847 23.7352 18.4452 23.5316 18.212 23.776V23.776ZM19.2869 22.6864C18.9522 22.6762 18.6075 22.6457 18.2728 22.5948C19.0131 21.9024 19.0131 21.6682 20.0778 21.9227C19.8142 22.1773 19.5505 22.4319 19.2869 22.6864C19.5404 22.4319 19.2362 22.6864 19.2869 22.6864ZM21.4569 22.5235C21.3555 22.717 19.7432 22.6966 19.7229 22.6966C20.2096 21.9024 20.8789 21.7395 21.7307 22.2282L21.4569 22.5337C21.4569 22.5337 21.5482 22.4319 21.4569 22.5337V22.5235ZM22.0653 21.8515C21.6394 21.8311 21.2237 21.7802 20.8079 21.7089C21.3656 20.5888 22.1261 20.2732 23.0591 20.7619C22.7244 21.1285 22.3898 21.4849 22.0552 21.8515C21.7814 21.8311 22.1971 21.6987 22.0552 21.8515H22.0653ZM24.5902 21.9126C23.8906 21.7395 23.1807 21.7293 22.4405 21.8718C23.0895 20.6601 24.0832 20.375 25.4217 21.0165C25.1479 21.3118 24.864 21.6173 24.5902 21.9126C24.864 21.6173 24.5902 21.9126 24.5902 21.9126ZM26.4256 20.6907C26.3344 20.6907 26.2431 20.6907 26.1518 20.6907C27.0949 19.6928 28.0278 18.0229 29.4271 18.0942C28.4537 18.9902 27.5106 19.9168 26.5574 20.8129C26.5574 20.7518 26.5169 20.6907 26.4256 20.6907V20.6907Z" fill="black" fill-opacity="0.4"/>
<path d="M25.8071 18.4707C25.7362 18.4707 25.7362 18.5827 25.8071 18.5827C25.8781 18.5827 25.8781 18.4707 25.8071 18.4707Z" fill="black" fill-opacity="0.4"/>
<path d="M31.9926 15.3347C30.9279 15.3144 32.0839 15.3347 31.9926 15.3347C31.8507 15.3347 32.1042 15.3347 31.9926 15.3347Z" fill="black" fill-opacity="0.4"/>
<path d="M18.394 17.2086C17.5524 17.2493 15.504 14.6324 15.0578 15.0804C14.7131 15.4266 16.3659 16.9438 16.6093 17.1882C15.6865 16.5671 15.1795 16.5671 15.0781 17.1882C16.5485 17.4529 17.3495 17.2697 18.4041 17.2187L18.394 17.2086Z" fill="black" fill-opacity="0.4"/>
<path d="M24.7831 14.8357C23.2215 14.8051 19.5203 14.7644 18.1514 14.52C20.3924 14.9273 22.8463 14.8051 24.7831 14.8357C24.9048 14.8357 22.5725 14.7949 24.7831 14.8357Z" fill="black" fill-opacity="0.4"/>
<path d="M30.7449 12.1987C27.1856 12.4227 27.5304 12.0867 24.9751 10.0502C24.2652 9.49017 22.876 6.60854 21.9533 7.01584C21.72 7.11767 24.7824 11.2925 25.2691 11.7303L23.7582 11.2619C24.8838 11.6794 26.4555 12.8707 27.7636 13.553C26.6381 13.6039 17.3394 10.5084 18.1507 9.704C17.5524 10.3048 22.7746 14.4694 23.7278 14.5712C24.0523 14.1537 23.9408 13.8279 23.383 13.5835C23.9103 13.6853 29.0413 14.1435 29.1427 13.9908C28.9196 13.0337 28.1692 12.4634 26.8713 12.3005C28.2301 12.5144 29.7207 12.2598 30.755 12.1987H30.7449Z" fill="black" fill-opacity="0.4"/>
<path d="M33.8385 11.1396C31.638 11.1396 29.3666 10.885 27.2676 10.1519C29.468 10.9257 31.6583 11.1294 33.8385 11.1396Z" fill="black" fill-opacity="0.4"/>
<path d="M32.6011 8.74658C32.5301 8.74658 32.5301 8.85859 32.6011 8.85859C32.6721 8.85859 32.6721 8.74658 32.6011 8.74658Z" fill="black" fill-opacity="0.4"/>
<path d="M37.3468 8.3087C36.7282 8.27815 34.0208 7.9014 33.5645 7.69775C34.9841 8.32906 36.2618 8.24761 37.3468 8.3087C37.4685 8.3087 36.059 8.23742 37.3468 8.3087Z" fill="black" fill-opacity="0.4"/>
<path d="M38.3711 7.04605C37.0123 5.69179 36.0895 5.48814 35.623 6.43511C37.5193 7.96247 38.4319 8.16612 38.3711 7.04605C38.5029 7.06642 37.4382 6.93405 38.3711 7.04605Z" fill="black" fill-opacity="0.4"/>
<path d="M35.1763 14.6935C33.2598 16.2717 31.5056 18.0435 29.6803 19.7338C30.2989 20.4974 30.958 20.0291 31.6374 18.3489C31.6272 18.5933 31.7084 18.8072 31.8808 19.0006C30.4611 19.5199 28.4432 21.088 28.3418 22.0452C28.3418 22.0655 33.2294 27.8899 33.0773 28.4194C32.8846 28.5619 32.8035 19.9781 32.8137 19.5607C34.0204 20.192 33.5032 21.7804 34.3854 22.7478C33.7668 22.0655 34.8924 17.9213 32.3371 17.7075C32.9455 17.1576 34.7707 15.0193 35.1662 14.6935C33.2598 16.2717 35.2879 14.5916 35.1662 14.6935H35.1763ZM30.451 21.811C30.451 21.811 30.5422 21.7702 30.5929 21.7601C30.6132 21.8517 30.6335 21.9332 30.6538 22.0248C30.5929 21.9535 30.522 21.8823 30.451 21.811C30.522 21.8823 30.4814 21.811 30.451 21.811Z" fill="black" fill-opacity="0.4"/>
<path d="M19.5103 13.4715C18.912 12.9827 18.3036 12.5041 17.7053 12.0154C17.1171 11.6284 20.2302 14.2453 19.5103 13.4715Z" fill="black" fill-opacity="0.4"/>
<path d="M27.4196 7.73878C27.4196 7.73878 25.1076 6.10959 25.2699 6.5067C25.6958 7.55549 27.8252 8.08498 27.4196 7.73878Z" fill="black" fill-opacity="0.4"/>
</g>
<defs>
<clipPath id="clip0_1_788">
<rect width="60" height="48" fill="white"/>
</clipPath>
</defs>
</svg>
