<svg height="1em" viewBox="0 0 10 14" fill="none" xmlns="http://www.w3.org/2000/svg">
<path d="M4.98058 13.2817C4.81404 13.2817 4.65373 13.2103 4.537 13.0824C4.07318 12.5777 0 8.07193 0 5.31266C0 2.38406 2.23348 0 4.98058 0C7.72768 0 9.96116 2.38406 9.96116 5.31266C9.96116 8.07193 5.88953 12.5777 5.42416 13.0824C5.30743 13.2103 5.14712 13.2817 4.98058 13.2817ZM4.98058 1.32817C2.92142 1.32817 1.24514 3.11621 1.24514 5.31266C1.24514 6.98615 3.63582 10.0974 4.98058 11.653C6.32533 10.0974 8.71601 6.98781 8.71601 5.31266C8.71601 3.11621 7.03974 1.32817 4.98058 1.32817Z" fill="white"/>
<path d="M4.96392 7.96964C3.59115 7.96964 2.47363 6.77762 2.47363 5.31331C2.47363 3.84901 3.59115 2.65698 4.96392 2.65698C6.33669 2.65698 7.45421 3.84901 7.45421 5.31331C7.45421 6.77762 6.33669 7.96964 4.96392 7.96964ZM4.96392 3.98515C4.27754 3.98515 3.71878 4.58116 3.71878 5.31331C3.71878 6.04546 4.27754 6.64148 4.96392 6.64148C5.65031 6.64148 6.20907 6.04546 6.20907 5.31331C6.20907 4.58116 5.65031 3.98515 4.96392 3.98515Z" fill="white"/>
</svg>
