<svg height="1em" viewBox="0 0 14 14" fill="none" xmlns="http://www.w3.org/2000/svg">
<path d="M3.15725 0.000804411L0.665039 2.65918L1.54607 3.59895L4.03827 0.940575L3.15725 0.000804411Z" fill="white"/>
<path d="M11.508 -0.000317336L10.627 0.939453L13.1192 3.59783L14.0002 2.65806L11.508 -0.000317336Z" fill="white"/>
<path d="M7.33264 13.089C4.24313 13.089 1.72949 10.4078 1.72949 7.11224C1.72949 3.81673 4.24313 1.1355 7.33264 1.1355C10.4222 1.1355 12.9358 3.81673 12.9358 7.11224C12.9358 10.4078 10.4222 13.089 7.33264 13.089ZM7.33264 2.46366C4.92951 2.46366 2.97464 4.54888 2.97464 7.11224C2.97464 9.6756 4.92951 11.7608 7.33264 11.7608C9.73577 11.7608 11.6906 9.6756 11.6906 7.11224C11.6906 4.54888 9.73577 2.46366 7.33264 2.46366Z" fill="white"/>
<path d="M8.75978 9.57449L6.89206 7.58224C6.77533 7.45773 6.70996 7.28839 6.70996 7.11241V3.79199H7.95511V6.83681L9.64072 8.63481L8.75978 9.57449Z" fill="white"/>
</svg>
