<svg height="1em" viewBox="0 0 13 11" fill="none" xmlns="http://www.w3.org/2000/svg">
<path d="M11.8289 10.6253H0.622572C0.278601 10.6253 0 10.3282 0 9.96124V0.664083C0 0.297177 0.278601 0 0.622572 0H11.8289C12.1728 0 12.4514 0.297177 12.4514 0.664083V9.96124C12.4514 10.3282 12.1728 10.6253 11.8289 10.6253ZM1.24514 9.29716H11.2063V1.32817H1.24514V9.29716Z" fill="white"/>
<path d="M6.67546 7.305C6.5167 7.305 6.35639 7.24025 6.23499 7.11075L0.631836 1.13401L1.51278 0.194336L6.67546 5.70124L11.8381 0.194336L12.7191 1.13401L7.11593 7.11075C6.99452 7.24025 6.83577 7.305 6.67546 7.305Z" fill="white"/>
</svg>
