<svg height="1em" viewBox="0 0 11 12" fill="none" xmlns="http://www.w3.org/2000/svg">
<path d="M10.3889 12H7.94444C3.56431 12 0 8.11167 0 3.33333V0.666667C0 0.298333 0.273472 0 0.611111 0H3.66667C3.94778 0 4.19222 0.208333 4.25944 0.505L4.87056 3.17167C4.94083 3.475 4.80792 3.79 4.55125 3.93L3.685 4.40167C3.85764 6.28667 5.23722 7.79 6.96514 7.98L7.3975 7.035C7.52583 6.755 7.81458 6.61 8.09264 6.68667L10.5371 7.35333C10.809 7.42833 11 7.69333 11 8V11.3333C11 11.7017 10.7265 12 10.3889 12ZM1.22222 1.33333V3.33333C1.22222 7.37667 4.23806 10.6667 7.94444 10.6667H9.77778V8.52L8.27139 8.11L7.88028 8.965C7.77639 9.19 7.56556 9.33333 7.33333 9.33333C4.63681 9.33333 2.44444 6.94 2.44444 4C2.44444 3.74667 2.57583 3.51667 2.78208 3.40333L3.56583 2.97667L3.19 1.33333H1.22222Z" fill="white"/>
</svg>
