<svg height="1em" viewBox="0 0 13 14" fill="none" xmlns="http://www.w3.org/2000/svg">
<path d="M6.6769 13.2815C3.24341 13.2815 0.451172 10.3031 0.451172 6.6407C0.451172 2.97829 3.24341 -0.00012207 6.6769 -0.00012207C10.1104 -0.00012207 12.9026 2.97829 12.9026 6.6407C12.9026 10.3031 10.1104 13.2815 6.6769 13.2815ZM6.6769 1.32804C3.92979 1.32804 1.69632 3.7121 1.69632 6.6407C1.69632 9.56931 3.92979 11.9534 6.6769 11.9534C9.424 11.9534 11.6575 9.56931 11.6575 6.6407C11.6575 3.7121 9.424 1.32804 6.6769 1.32804Z" fill="white"/>
<path d="M11.9563 7.96887H1.39746V9.29704H11.9563V7.96887Z" fill="white"/>
<path d="M11.9563 3.9845H1.39746V5.31266H11.9563V3.9845Z" fill="white"/>
<path d="M5.47058 12.8565C4.63011 10.9224 4.18652 8.77244 4.18652 6.64074C4.18652 4.50903 4.63011 2.35907 5.47058 0.424927L6.60055 0.982754C5.83634 2.74423 5.43167 4.69995 5.43167 6.64074C5.43167 8.58152 5.83634 10.5372 6.60055 12.2987L5.47058 12.8565Z" fill="white"/>
<path d="M7.8829 12.8565L6.75293 12.2987C7.51714 10.5372 7.92181 8.58152 7.92181 6.64074C7.92181 4.69995 7.51714 2.74423 6.75293 0.982754L7.8829 0.424927C8.72337 2.35907 9.16695 4.50903 9.16695 6.64074C9.16695 8.77244 8.72337 10.9224 7.8829 12.8565Z" fill="white"/>
</svg>
