<svg width="29" height="29" viewBox="0 0 29 29" fill="none" xmlns="http://www.w3.org/2000/svg">
<g clip-path="url(#clip0_923_644)">
<path d="M7.7786 20.8598C11.3909 24.4721 17.2477 24.4721 20.8601 20.8598C24.4724 17.2474 24.4724 11.3906 20.8601 7.77829C17.2477 4.16594 11.3909 4.16594 7.7786 7.77829C4.16625 11.3906 4.16625 17.2474 7.7786 20.8598Z" fill="#FF0000"/>
<path d="M7.07151 21.2132C3.17182 17.3135 3.17182 10.9708 7.07151 7.07107C10.9712 3.17137 17.314 3.17137 21.2136 7.07107C25.1133 10.9708 25.1133 17.3135 21.2136 21.2132C17.314 25.1129 10.9712 25.1129 7.07151 21.2132ZM19.7994 8.48528C16.6793 5.36517 11.6041 5.36694 8.48572 8.48528C5.36738 11.6036 5.36562 16.6789 8.48572 19.799C11.6058 22.9191 16.6811 22.9173 19.7994 19.799C22.9178 16.6806 22.9195 11.6054 19.7994 8.48528Z" fill="#FF0000"/>
<path d="M18.3853 16.9705L11.3142 9.89941L9.9 11.3136L16.9711 18.3847L18.3853 16.9705Z" fill="white"/>
<path d="M18.3852 11.3136L16.9709 9.89941L9.89988 16.9705L11.3141 18.3847L18.3852 11.3136Z" fill="white"/>
</g>
<defs>
<clipPath id="clip0_923_644">
<rect width="20" height="20" fill="white" transform="translate(14.1426) rotate(45)"/>
</clipPath>
</defs>
</svg>
