<svg width="80" height="80" viewBox="0 0 80 80" fill="none" xmlns="http://www.w3.org/2000/svg">
<path d="M40 80C17.94 80 0 62.06 0 40C0 17.94 17.94 0 40 0C62.06 0 80 17.94 80 40C80 62.06 62.06 80 40 80ZM40 8C22.35 8 8 22.36 8 40C8 57.64 22.35 72 40 72C57.65 72 72 57.64 72 40C72 22.36 57.65 8 40 8Z" fill="#00B512"/>
<path d="M35.9999 55.9999C34.9799 55.9999 33.9499 55.6099 33.1699 54.8299L21.1699 42.8299L26.8299 37.1699L35.9999 46.3399L57.1699 25.1699L62.8299 30.8299L38.8299 54.8299C38.0499 55.6099 37.0299 55.9999 35.9999 55.9999Z" fill="#00B512"/>
</svg>
