<svg height="1em" viewBox="0 0 20 20" fill="none" xmlns="http://www.w3.org/2000/svg">
<g clip-path="url(#clip0_1_3309)">
<path d="M8.55272 17.1054C3.83536 17.1054 0 13.2701 0 8.55272C0 3.83536 3.83536 0 8.55272 0C13.2701 0 17.1054 3.83536 17.1054 8.55272C17.1054 13.2701 13.2701 17.1054 8.55272 17.1054ZM8.55272 2.13818C5.0167 2.13818 2.13818 5.0167 2.13818 8.55272C2.13818 12.0887 5.0167 14.9673 8.55272 14.9673C12.0887 14.9673 14.9673 12.0887 14.9673 8.55272C14.9673 5.0167 12.0887 2.13818 8.55272 2.13818Z" fill="#231F20"/>
<path d="M14.6553 13.1423L13.1431 14.6545L18.4888 20.0002L20.001 18.488L14.6553 13.1423Z" fill="#231F20"/>
</g>
<defs>
<clipPath id="clip0_1_3309">
<rect width="20" height="20" fill="white"/>
</clipPath>
</defs>
</svg>
